<?xml version="1.0" encoding="UTF-8"?>
<svg id="Ebene_2" data-name="Ebene 2" xmlns="http://www.w3.org/2000/svg" viewBox="0 0 556.88 259.43">
  <defs>
    <style>
      .cls-1 {
        fill: #0e5a28;
      }
    </style>
  </defs>
  <g id="Ebene_1-2" data-name="Ebene 1">
    <g>
      <path class="cls-1" d="M105.29,102.24c1.19-.19,3.78-.53,4.36-1.68.36-.72.36-7.35.23-8.55-.23-2.08-1.94-1.92-3.32-2.91-4.79-3.46-3.69-11.79-3.29-16.96,2.84-2.35,8.48-2.08,12.02-1.33,2.52.53,3.07,1.76,3.3,4.18.36,3.85-.6,11.92-3.94,14.35-.83.6-2.43.84-2.66,1.5.18,2.27-.81,9.16.95,10.59.78.64,4.33.04,3.97,1.79-.51,2.45-9.21,2.17-10.97,1.05-.78-.5-.74-1.17-.64-2.03ZM114.64,74.36c-1.43.38-6.4,0-8.32,0-.27,0-1.76-.96-1.87-.83.39,4.9-2.24,13.22,3.93,15.4,4.22,1.5,6.78-1.25,7.91-5.02.75-2.5,1.31-8.73.36-11.12s-9.97-1-12.2-.5c-.03.51,1.29.94,1.66,1.04,3.26.88,5.89.45,9.16.21.13.1-.46.79-.62.83ZM111.52,98.48c-1.66-.31-.19,2.25-1.42,2.94l-3.56,2.04c3.16,1.11,5.56.9,8.73,0-.13-.75-1.4-.66-2.05-1.06-1.37-.84-1.88-2.37-1.69-3.92Z"/>
      <path class="cls-1" d="M344.35,92.75c1.32,3.86.18,12.21-2.63,15.27-.89.98-2.84.88-3.1,2.3-.16.84-.14,6.76.07,7.42.46,1.43,4.7.86,4.09,2.96-.48,1.64-10.1,1.24-10.8.22-1.25-1.81,3.72-2.03,4.37-3.32.36-.72.34-5.4.22-6.47-.25-2.32-2.67-1.8-4.18-3.3-3.13-3.1-2.85-11.17-1.88-15.19,4.3-1.88,9.57-1.64,13.85.11ZM331.14,93.08c-.16.75.22.82.69,1.18,2.1,1.63,6.8,1.21,9.32.71,1.01-.2,2.17-.45,2.88-1.27-3.89-2.29-8.75-2.09-12.89-.62ZM344.03,94.74c-4.04,1.62-8.89,1.93-12.89,0-.33,1.8.3,3.55.41,5.2.03.5-.32,1.06-.26,1.59.35,3.47,1.91,7.86,6.19,7.27,5.69-.78,6.25-9.58,6.55-14.06ZM341.12,120.51c-1.3-1.49-3.47-1.59-3.33-4.15l-1.44,2.5-2.3.82c-.12,1.1.03.65.61.84,2.04.63,4.43.59,6.46-.01Z"/>
      <path class="cls-1" d="M389.79,90.16c.16-.75.81-.78,1.44-.85,5.72-.6,12.12.54,17.87.46.64-5.07,3.86-13.37-4.13-13.33-4.02-.03-8.05-.22-12.07-.42-.8-.04-.65.05-.62-.83,1.22-.17,2.26-.49,3.55-.45,2.95.1,9.19.71,12.03,1.3,2.3.48,3.66,1.9,3.58,4.32-.02.7-.42,1.39-.44,2.1-.05,2.22.33,5.46,0,7.48-.09.56-.33.96-.82,1.26l-20.38-1.05Z"/>
      <g>
        <path class="cls-1" d="M235.06,33.2l-1.24,1.24c1.92.56,3.45,1.11,5.41.22l-.42-.63.63-.82,1.45.63-1.27,2.88.02,24.76c1.67-.78,4.65.28,2.72,2.1-.39.36-4.28,2.52-3.55,1.03.43-.86,3.12-1.11,2.91-2.71-3.43.85-6.48,1.05-9.98.42.42,1.47,2.91,1.26,2.91,2.91-1.13-.62-4.56-1.07-4.6-2.7-.03-1.38,2.77-1.59,3.76-1.04.08-6.17-.1-12.35-.02-18.52.04-2.91.47-4.12-.09-7.37-.24-1.39-1.58-2.65,1.35-2.38ZM235.06,35.69v26.2h3.33c.05-8.74-.24-17.51.42-26.2h-3.75Z"/>
        <path class="cls-1" d="M237.55,33.61c-1.62.31-.37-1.85-1.04-2.91-.21-.33-.92-.48-1.22-.86-3.15-3.92,1.2-9.03,2.47-12.87.32,1.82.8,3.61,1.24,5.41.64,2.61,1.94,3.59.44,6.67-.81,1.66-2.54,2.13-1.89,4.55ZM237.56,29.46c.61.13.67-.07,1.02-.43,2.32-2.48-.67-6.07-1.23-8.71-1.44,2.49-3.57,7.15-.63,9.15l.21-1.66.63,1.66Z"/>
      </g>
      <path class="cls-1" d="M146.46,76.85c-1.31.08-2.63-.45-3.92-.42-3.89.09-9.02.38-12.92.84-2.22.26-6.09.11-6.03,2.91-1.73-.98-.67-2.57.83-3.13,3.46-1.29,16.78-1.92,20.62-1.47.84.1,1.54.18,1.43,1.27Z"/>
      <g>
        <path class="cls-1" d="M222.16,68.95c5.1-1.14,3.12,3.2-.68,3.62l-3.06-.7c2.1.24,4.42-.4,5.82-2.08-3.34.24-6.34.98-9.56-.42-.12,1.23,1.19,1.52,1.94,2,.19.12,1.34.59.76.91-4.12.11-7.03-4.31-1.04-3.74.02-4.92-.03-9.85-.02-14.78,0-2.1.11-3.55.02-5.8-.08-1.97.5-4.48-.62-6.05l.41-.81.49.82c1.45-.04,2.74.88,4.05-.04.73-.51.35-1.46,1.68-1.22,1.91.34.37,1.72.21,3.12-.66,5.46-.14,13.23-.4,19.14-.09,2,.06,4.03,0,6.03ZM221.33,42.76h-3.74v26.61h3.74v-26.61Z"/>
        <path class="cls-1" d="M218.42,101.39h-.83c.44-1.01-.42-2.6-.42-3.12v-24.74c.31,0,1.25.96,1.25,1.04v26.82Z"/>
        <rect class="cls-1" x="220.06" y="73.11" width="1.27" height="28.69"/>
        <path class="cls-1" d="M216.34,101.39c-.59,1.18-2.09,1.81-3.33,2.08-.87,1.09,3.89,1.98,4.41,2.03,2.79.31,6.45-.08,8.89-1.41-6.08-3.3,1.72-1.83,1.59.42-.21.45-.62.73-1.06.94-2.77,1.34-12.85,1.72-15.09-.53-.48-.48-.49-.99-.44-1.61.1-.47,4.15-2.24,5.01-1.92Z"/>
        <path class="cls-1" d="M220.08,25.71c-.12,3.76,2.5,5.88,2.09,9.78-.25,2.36-1.74,2.12-2.03,2.96-.34,1,.62,2.97-.89,2.64.8-3.32-2.92-3.63-2.92-6.86,0-1.41,2.04-6.64,2.82-8,.27-.46-.02-.71.93-.53ZM220.91,36.94c1.97-3.12-.77-5.69-1.45-8.73-1.39,2.53-3.11,6.25-.83,8.73l.62-1.24c.94.24.46,1.61,1.65,1.25Z"/>
      </g>
      <path class="cls-1" d="M146.04,90.99l.63-5.41c.94-.36.59.95.62,1.45.09,1.61.46,3.95-1.11,4.75l-11.37.45,1.87-1.25h9.36Z"/>
      <path class="cls-1" d="M373.98,217.81c-1.18-.14-2.78.27-3.87-.07-.58-.18-.9-.99-1.37-1.08-1.05-.21-4.53.99-5.98.12,3.03-2.1,6.69-.91,9.82.16.54.18,1.27.11,1.41.88Z"/>
      <path class="cls-1" d="M448.02,93.49c.54.46.07.8-.62.83-1.38.07-2.78-.04-4.16,0-.7.02-1.37.42-2.08.42-1.6,0-3.78-.84-5.61-.43-.17-.42.97-.83,1.04-.83h11.44Z"/>
      <path class="cls-1" d="M98.42,241.93c-.16-.04-.75-.73-.62-.83,2.01.07,4.04-.1,6.05-.02,1.09.04,1.95.37,2.89.43,1.11.07,2.22-.04,3.33,0,.51.02,1.55-.31,1.45.42h-13.1Z"/>
      <g>
        <path class="cls-1" d="M345.7,55.23c-3.14.71-5.82-2.85-5.79-5.76,2.28-1.93,5.02.36,5.61,2.82.26,1.08.09,1.95.18,2.94.85-.19,1.57-1.91,3.58-2.07,1.25-.1,3.41.77,2.86,2.06-2.82-2.52-5.96-.9-5.2,2.91-1.21.06-2.63-.49-2.92,1.04-.64,3.34,1.87,1.95,2.48,4.6.67.56,1.37-.67,2.13-.47.97.25,1.39,1.64,2.64,1.5,2.16-.24,2.98-3.62,3.93-5.22-.03-.49-3.49-1.27-2.66-3.5.74-2,2.86-2.77,4.79-2.1-.66-3.78,4.51-3.98,5.64-.81,1.9-1.19,4.1-1.24,4.77,1.22,1.09-.27-.7-1.86.62-2.49.97-.46.49,1.07.62,1.25l2.28-1.67c1.45.97,2.74.6,4.16.84,2.97.49,2.44,6.24-.61,6.44.95.67.9,1.64.83,2.71,2.41-.3,4.19.46,4.18,3.12-.02,3.4-3.94,1.62-3.17,4.8l2.74.8c-1.04-2.05,1.89-5.53,4.16-5.4l-2.86,2.75-.47,2.23,3.75-3.96c.79-.38,2.87.71,3.92.63.74-.06,1.25-.73,2.01-.72,3.05.04,5.73,3.56,5.28,6.54-1.86-.71-4.29.16-5.61-1.67-.51-.71-1.02-2.85-1.57-3.21-.39-.26-2.86-.62-3.41-.53-.49.08-2.95,1.91-3.13,2.3-.42.92,1.45.53,1.65,1.24l-1.24.83c.74,1.51,4.06-.45,4.07-1.25,0-.32-1-.73-.74-1.45,3.34-1.1,2.07,2.18.15,3.27-.66.38-1.78.2-1.82.88,5.08-1.59,8.83,5.28,1.66,3.74l2.91-1.25c-.15-1.74-2.06-2.16-3.52-2.09-.6.03-1.22.44-1.64.44-.14,0-1.96-2.48-2.32-.64l5.8,4.61c3.5-.44,7.58-.95,8.97,3.07l1.23,5.84c-1.51-.5-2.9-1.14-4.56-.82-1.09.21-1,1.22-2.45.36-2.76-1.64-2.31-6.22-4.47-8.43-.25-.25-3.15-2.48-3.28-2.33l2.49,5.2c-.87.63-2.24-2.14-2.57-2.83-.43-.9-.55-1.93-.96-2.78-.25-.52-1.72-3.4-1.88-3.53-1.31-1.05-3.92-1.02-5.35-.16-.23.68.11,1.51-.04,2.16-.11.48-1.7.57-1.7,1.74,0,2.11,5.2,3.04,6.82,2.72.66-.16.41-2.82,1.93-2.51,0,1.08-.45,2.89-1.53,3.25-.6.2-2.18-.29-1.79.69.07.17,2.05,2.89,2.19,3.01.23.2,1.19.73,1.55.95-.28,0-.85-.16-.83.2.68,1.44,2.11,2.66,2.07,4.37l-2.9-3.32c0,1.96-.77,3.41-.22,5.42.91,3.34,3.82,2.3,6.25,3.72.87-.07,1.19-5.58.85-6.67-.73-2.32-3.38-2.4-4.97-3.28-.28-.16-.23-.43-.25-.44,2.7.02,5.98,1.75,6.49,4.56.41,2.28-1.22,4.97-.25,7.49-.27.29-2.33-.83-2.7-.83h-8.53c0-.58,1.92-.76,2.29-.76.6,0,1.21.46,1.87.34.07-.99-.93-1.35-1.34-2.19-1.76-3.63.9-7.67-1.56-10.5-.57-.66-1.91-1.27-2.71-1.87-.45-.34-1.44-1.6-1.68-1.65-1.82-.4-.37,3.48-.25,4.41.09.75.07,1.49.04,2.24l-1.05-3.74-.61-.83c.32,1.74-1.46,3.29-1.55,4.85-.11,1.77,2.02,3.94,3.21,5.13,1.12-3.16,3.35-3.04,2.41-7.19-.3-1.33-1.85-2.2-1.99-3.62,5.05,3.23,3.1,8.27-.67,11.63-3.16-2.02-4.67-4.13-3.28-7.88.45-1.22,1.52-2.04,1.44-3.33-1.28,1.57-2.14-.32-3.11-.26s-2.55,2-3.96.26c-.89,3.26,3.92,3.15,4.49,5.7.64,2.84-2.25,3.87-1.59,6.77-1.98-2.15-5.75-3.45-5.38-6.82.16-1.49,2.01-4.63,1.9-5.87-.06-.68-2.06-2.54-1.52-3.93h-2.06c.09,1.99,1.92,2.86-.45,4.32-.59.37-1.36.55-2.05.66.05,1.2.82,2.12,1.96,2.4.96.24,2.53-.45,2.2.92l-2.23.45-1.09-1.28c.59,1.51-1.43,5.31-2.72,5.81-.72.28-.56-.3-.72-.52-2.11-2.94-2.87-4.21-.31-7.37-4.79.74-1.44,7.58-.93,10.7.56,3.44.18,6.97.56,10.25.76,6.56,5.16,4.45,9.73,4.64,2.93.12,5.65,1.86,8.33-.63.46-.43,1.86-3.13,1.86-3.54v-9.98c0-.09.72-.76.83-.62-.52,5.2,2.62,12.35-2.52,15.98-2.74,1.93-4.17.73-6.84.65-6.91-.19-14.07,1.52-13.1-8.32h-4.99c-.1-.73.94-.39,1.45-.42,5.32-.24,3.24-.5,3.11-4.76-.08-2.34.33-5.34.04-7.53-.14-1.09-.84-1.56-.9-2.88-.07-1.78.72-2.59,1.27-4.14-1.89-.97-1.73-2.44-1.65-4.39-2.68,1.82-6.38-1.1-9.3.79-.42.27-.37,1.43-.9,2.1-1.65,2.08-6.43,1.82-8.76,2.92-2.39.14-1.04-2.24-1.03-3.49,0-.59-.43-1.22-.38-2.07.22-3.63,4.07-3.59,6.65-4.62,0-.84-7.26,1.46-7.51-1.25,2.26-3.27,6.44-3.65,10.01-2.29-.24,2.43-2.67.11-4,.01s-4.72.68-4.74,2.48c1.72,1.11,3.11-.18,4.18-.21.89-.03,2.25.61,3.05.52.68-.08,1.13-.91,1.92-.72-.89,1.38.38,2.8.42,4.15-.5-.26-.94-.04-1.04-.08-.32-.12-.03-1.05-.82-.75-1.13.41-1.19,3.01-2.71,2.91l2.07-4.57c-2.06,1.33-5.93,1.08-6.58,4.04-.36,1.64.77,2.38.69,3.17-.07.68-.96,1.14-.75,1.94.96-.28,2.28-1.06,3.23-1.18.82-.1,1.47.33,2.19.17.37-.09,2.44-1.19,2.72-1.46.56-.56,1.04-3.28,1.02-4.18.98.5.79.9,1.21,1.4,1.06,1.25,2.82-1.62,2.95-2.65-1.06-.07-3.45-.26-3.96-1.24-.81-1.57.71-2.63.63-4.16-1.84-.4-4.53-.61-5.82-2.08l4.55.45.03,1.21c2.34-1.42,3.9-4.62,6.65-1.67.93-2.28-3.22-2.54-3.36-3.94s.49-2.7,1.28-3.77l2.09.23c0-.87-.33-1.62-.41-2.49ZM344.86,54.82c.44-2.67-.82-5.32-3.74-5.4-.1,2.75,1.26,4.41,3.74,5.4ZM363.58,63.97c0-.59.53-1.39.42-2.08,4.41,1.56,5.21-2.86,1.25-4.36.98-.97,2.44-1.02,1.9-2.72-1.05-3.35-4.44-.23-4.81-.82.07-2.14-1.95-2.64-3.58-1.68l-.5.7.33,1.82-4.1.06-.42,2.58,2.43,1.77c.13.59-1.45,1.89-.3,2.98.14.13,3.37,1.49,3.6,1.54.29.06,3.6.26,3.79.22.01.94.98,1.86.83,2.91l1.66-.43-.42-3.32c-.91-.35-1.59.73-2.08.83ZM372.74,57.72c2.32.47,4.25-.29,3.65-3.02-.46-2.13-1.64-1.28-3.01-1.57-2.14-.45-3.24-1.54-3.14,2.1l2.91.41-2.08.83c2.24.72,1.98-1.44,3.74-1.24l-2.08,2.49ZM369.13,56.32c-.24-.22-.02-.81-.34-.67l-1.47,1.86,1.26,3.96c.93-.13.1-1.75.5-2.41.31-.52,2.95-.8,1.74-1.77-.39-.31-1.13-.48-1.68-.97ZM374.81,62.3c1.33-3.18-2.54-4.03-4.94-2.85l-.05,2.86c-4.96-.38-4.67,4.03-.05,4.62l.45,2.67c3.1.94,6.43,1.07,5.84-3.14,2.17.3,3.49-.69,2.73-2.93-.85-2.51-3.48-.79-3.98-1.23ZM363.06,64.91c-1.16-.93-2.79.07-3.74-.17-.51-.13-4.3-2.62-4.47-2.43-.19,2.18-2.34,2.86-3.97,3.76l-.56-.07c-.22-.78-1.06-2.05-1.92-2.05-2.23,1.68-2.15,1.95-4.91.9-.98.7-2.26,1.71-1.98,3.03,1.73.59.38.92.11,1.79-.8,2.56,1.83,2.69,3.66,2.2.34.32-1.98,2.6-.15,3.29,1.57-.53,3.61.5,4.9-.42s.27-2.39.74-3.21c.24-.42,2.83-1.09,1.93-2.92-1.04-.37-1.8-.87-1.59-2.14l2.91,2.91c-.25-2.1.43-4.45,2.08-5.82,1.06,2.56-.49,1.92-.77,2.75-.16.46-.17,3.14.04,3.41s.83.16,1,.68c.14.44-.19,2.07.23,2.65.1.14,2.79,1.16,3.14,1.24,3.35.71,6.94-3.05,3.03-5.11,1.93-.3,1.25-3.5.3-4.26ZM368.93,67.36c-.76-1.18-3.08.24-4.1.35l.83.41c-.45,1.77-1.2,3.1-.81,5.14-4.11,1.31-2.83,5.68.97,6.02l1.3-1.59c2.82,3,5.83-.2,3.54-3.32.8-.04,2.38-1.32,2.32-2.11-.19-2.55-2.71-1.35-3.35-2.04-.81-.64-.4-2.41-.69-2.87ZM394.36,71.45c.02-2.41-1.76-4.35-4.16-4.57l.83,1.04-1.24.21c-.07,3.1,2.38,2.66,4.57,3.33ZM352.35,73.53c.46.47-2.7,3.32-.64,5.43,1,1.03,1.73.32,2.83.46.46.06.94.62,1.35.63.16,0,2.83-1.38,2.93-1.51.55-.76.41-3.79-.66-4.37-2-1.08-2.34-.07-2.86-3.37-1.29-.94-4.39,1.25-4.19,2.52.08.54.87.42,1.25.21ZM395.61,85.17l-2.07-6.04c-1.41-1.6-3.29-.6-5-1.44-.71.77,3.2,2.84,2.29,3.74l-3.12-2.08c-.25.28.99,4.42,1.47,4.97,1.42,1.65,4.39-.18,6.43.84ZM355.27,83.09l-.63-1.66c-2.5,1.97-1.01,3.48-.2,5.81.98.28.7-.27.94-.53,1.23-1.35,2.48-2.75.93-4.45l-1.03.83ZM363.58,83.09c-.99-.76-2.55,2.67-1.02,4.55.24.29,2.65,2.16,2.88,2.1,2.15-2.72,3.1-5.52-1.03-6.65-.34.36,1.19,3.02,0,3.32l-.84-3.32Z"/>
        <path class="cls-1" d="M389.69,54.5c.52.53.37,1.79.63,2.49.54,1.45,1.52,1.62,1.05,3.76-.62,2.81-3.82,1.44-4.02,1.58-.34.24-.9,2.34-2.36,2.48-.82.08-4.37-2.01-4.81-2.71s.12-1.32.05-2.05c-.08-.78-.79-1.38-.8-2.11-.03-1.24,1.12-3.77,2.44-4.19,2.79-.87,3.41.84,4.87.98.8.08,1.87-1.34,2.96-.24ZM389.37,55.23c-1.04-.28-2.22.49-3.1.42s-1.45-1.19-2.5-1.21c-2.24-.05-2.88,2.2-3.56,3.93l1.3,1.29c-1.35,2.9,2.17,4.27,4.54,3.69.69-.44.96-1.05.83-1.87-2.06-.2-3.12-1.2-2.91-3.33h1.25s0,2.08,0,2.08c.77.05.4-1.4,1.45-1.24,1.23.19-.22,1.29-.02,1.66.99,1.23,2.57,1.62,3.6.23,1.32-1.78-1.67-3.46-.86-5.64Z"/>
        <path class="cls-1" d="M350.27,80.6c-.34.83-1.35.87-1.77,1.76-.94,1.95.61,3.98-1.54,5.95-1.4,1.28-3.28,1.03-5.1,1.55-1.03.3-1.76,1.09-2.82,1.13.52-1.88.54-4.19.92-5.94.71-3.28,5.85-2.75,8.23-3.47.67-.2,1.18-1.17,2.08-.97ZM346.95,82.68c-1.88.13-5.79.57-6.18,2.8-.13.75.27,1.34.23,1.92-.06.83-.81,1.47-.7,2.34,3.37-1.32,7.04-.44,6.65-5.4l-3.32,1.46,3.33-3.12Z"/>
        <path class="cls-1" d="M335.41,63.44c-1.11-.72-1.26-3.38-.31-4.45.73-.82,3.01-1.87,4.13-1.68,1.93.33,3.44,4.3,2.1,5.83-.75.86-4.95.93-5.93.3ZM341.12,61.47c-.77-4.74-2.93-4.18-5.85-1.39l1.13,3.07,3.89-.44c-.35-.97-1.58-1.22-2.5-1.25l.68-1.2c1.44-.44,2.45,1.44,2.64,1.21Z"/>
        <path class="cls-1" d="M378.14,54.82c-.4-1.48,1.85-1.97,2.01-2.75.17-.82-1.27-2.1-.57-3.48.6-1.19,1.59-.35,2.58-.72.45-.17,2.53-1.9,2.63-1.78,0,2.16.48,4.72-1.69,6-.75.44-1.69.45-2.44.89-.89.51-1.32,1.89-2.52,1.84ZM381.15,51.39c.27.27.8.4,1.18.32,1.41-.36,2.15-2.67,1.62-3.97-1.12,1.26-2.72.35-3.74,1.46-.04.21.73,1.97.93,2.18Z"/>
        <path class="cls-1" d="M370.51,49.69c-.67.73-2.88,2.21-3.83,2.12-2.76-3.83,0-5.33,2.94-7.34,1.52,1.34,2.41,3.58.89,5.22ZM366.91,50.66c3.31-.86,3.69-2.23,2.91-5.4l-3.29,2.77.38,2.63Z"/>
        <path class="cls-1" d="M339.46,55.23c-4.55-.08-6.02-2.08-7.07-6.23,4.26-.57,7.2,1.9,7.07,6.23ZM338.62,54.4c-.12-2.83-2.25-4.48-4.99-4.57.75,2.91,1.81,4.46,4.99,4.57Z"/>
        <path class="cls-1" d="M321.57,77.27c2.11-2.33,2.58-4.91,6.36-4.06,1.83.41,1.84,1.39.9,2.8-1.81,2.69-4.51.79-7.26,1.26ZM323.65,76.44c1.92-.28,3.24,1.25,4.26-.94.43-.93.53-1.89-.73-2s-2.76,1.97-3.53,2.94Z"/>
        <path class="cls-1" d="M403.1,69.37c-3.01-.16-7.08,1.34-8.31-2.48,3.29-2.38,7.08-1.58,8.31,2.48ZM401.43,68.54c-1.26-2-3.45-3.58-5.41-1.44.99,2.89,3.2,1.44,5.41,1.44Z"/>
        <path class="cls-1" d="M333.22,65.21c-1.77.66-5.51,2.68-5.41-.41,1.59,1.9,2.6.51,4.57-.2-1.13-2.36-2.51-2.55-4.99-2.29l1.66,1.87c-.82,1.2-3.72-1.82-3.73-2.08-.05-.97,2.19-.15,2.69-.17.95-.03,1.81-.57,2.72-.29,1.33.41,1.99,2.4,2.49,3.57Z"/>
        <path class="cls-1" d="M335.3,41.1c2.13,1.55,3.66,3.25,3.34,6.05-.2,1.79-.99,1.54-2.32.61-2.84-1.99-1.49-3.89-1.03-6.66ZM337.79,47.33c.25-1.93-.3-3.61-2.07-4.57-.58,2.24-.45,3.87,2.07,4.57Z"/>
        <path class="cls-1" d="M359.43,50.24c.14-1.07.77-2.84-.41-3.56-.83-.5-1.54.19-2.25.13s-1.13-.92-1.92-.73c.59,2.16,1.85,3.34,3.74,4.37-2.96.72-4.35-2.74-4.57-5.2,2.77.57,6.6-.44,6.27,3.54-.05.62-.12,1.3-.86,1.45Z"/>
        <path class="cls-1" d="M347.36,78.1c.97.42,3.44.66,1.23,2.27-2.02,1.47-4.04-.02-6.21-.21.08-3.48,2.47-3.15,4.98-2.06-1.56-.37-3.97-.45-4.16,1.66,1.79-.21,3.28.84,4.97-.02.37-.56-.37-1.53-.82-1.64Z"/>
        <path class="cls-1" d="M394.78,65.63c-1.82-.43-2.72-1.14-4.76-.81-.9.15-1.85,1.18-2.72.6,1.75-2.06,6.62-3.11,7.48.2Z"/>
      </g>
      <path class="cls-1" d="M94.47,246.09c.1.73-.94.39-1.45.41-4.39.18-8.8-.34-13.11-.62,0-.73,12.99.06,14.56.21Z"/>
      <rect class="cls-1" x="222.99" y="92.24" width="9.57" height=".83"/>
      <path class="cls-1" d="M63.06,232.78c.61.04,2.14.05,2.29.83-2.63-.43-5.35.78-7.78.09-.35-.1-1.45-.42-1.37-.91,2.27.1,4.59-.14,6.86,0Z"/>
      <path class="cls-1" d="M235.06,98.47c-1.5.04-4.16.19-5.3-.93-1.05-1.03.06-1.57,1.13-1.98-.18,2.9,3.04,1.25,4.16,2.91Z"/>
      <g>
        <path class="cls-1" d="M45.8,200.14c.05-.43.69-1.15.42-1.87.6-.76,1.2,4.19,1.24,4.78.5,7.29.2,14.73.85,22.06l-.67,10.2,1.49.79c-5.22.91-2.98-3.31-2.89-6.42.11-3.68-.27-7.23-.43-10.83-.06-1.31.25-6.64-.08-7.2-.1-.17-.86-.3-1.18-.68-1.36-1.61-1.87-3.37-4.01-4.74s-4.82-.65-7.5-1.65c-5.1-1.91-4.6-5.45-4.29-10.27.49-7.45,3.38-14.32,4.12-20.83.86-7.59.45-14.98,1.8-22.73.12-.7.48-1.32.74-1.96l-7.88,3.55-1.68-.02c1.19-.88,2.68-1.12,4.04-1.79.63-.3,1.04-.93,1.67-1.24,1.14-.56,3.7-.75,4.24-1.58,1.37-5.04,1.57-10.87,3.34-15.79.88-2.44,1.78-3.07,3.79-4.52,4.91-3.55,11.12-6.58,16.32-9.88,9.33-5.92,18.83-11.89,27.7-18.47,2.52-1.87,6.42-6.09,9.4-6.41,2.13-.23,5.88-.14,7.92.4.57.15,1.29.05,1.44.84-3.63,1.11-7.87-.45-11.37,1.32-6.1,3.1-13.32,9.24-19.28,13.16-9.24,6.07-20.33,11.95-28.97,18.45-1.09.82-2.28,1.61-3.21,2.62-3.25,3.53-4.2,13.7-5.43,18.69-.39,1.59-1.4,3.16-1.6,4.64-.96,7.09-1.02,14.42-2.16,21.54-.88,5.46-2.52,9.56-2.49,15.07.02,3.38-.85,6.79-.37,10.14.89.09,1.26-.76,2.07-1.05,3.13-1.11,7.56-1.36,11.15-2.58,4.39-1.49,8.25-3.29,8.66-8.47.53-.19,1.05-.36,1.63-.37,2.17-.05,5.46.76,7.42.68s4.22-1.81,6.07-2.17c.53-.1,1.72-.22,1.68.45-.01.22-2.3,1.64-2.74,1.82-4.1,1.76-8.31.66-12.59.93-1.33,6.86-8.46,8.86-14.45,9.88-1.01.17-2.08-.01-3.17.15-1.41.22-5.43,1.76-3.64,3.43,1.61,1.5,7.59,3.02,9.95,4.21,1.21.61,1.46,1.26,2.32,2.23.12.05.62-.98.62-1.04,0-2.32-.25-5.27,0-7.48Z"/>
        <path class="cls-1" d="M49.55,235.7c6.32-.51,3.6-4.85,3.31-8.92-.23-3.18.55-6.18.45-9.19-.25-7.6-.89-14.25.5-21.92.07-.39.17-1.25.72-1.14.1,2.83-.12,5.7-.01,8.54.22,6.22.43,12.43.45,18.71,0,3.03.22,4.93.4,7.88.14,2.35.31,6.21-2.47,7.09-1.14.36-3.43.62-3.35-1.06Z"/>
        <path class="cls-1" d="M53.29,183.31l-1.28-.25-3.66-14.98-.48-5.34c.16-4.31-.32-8.6-.86-12.86-.41-3.26-1.94-6.84-1.2-10.23,1.69,1.41,1.94,4.48,2.36,6.57,1.76,8.8,1.09,17.08,2.25,25.61.56,4.12,3.03,7.37,2.86,11.48Z"/>
        <path class="cls-1" d="M66.18,211.58c.91-2.75,1.18-6.48.85-9.37-.08-.68-.36-1.57-1.07-1.85-.86-.34-.58.56-.62,1.03-.15,2.04-.41,5.16-.42,7.07,0,1.39,1.04,2.88.84,4.37-1.1.32-1.19-1.14-1.25-1.86-.4-4.71.14-9.47.02-14.16-.05-2.11-1.27-4.49.61-6.42,1.89,1.53.77,4.55,1.07,6.82.28,2.08,1.81,3.81,2.04,6.27.12,1.21.22,6.57-.06,7.43s-1.23.7-2.02.68Z"/>
        <g>
          <path class="cls-1" d="M18.76,157.11c-1.56.03-1.96,1.98-1.19,3.27l14.09,2.34-.24,1.05c-3.77-.42-7.61-.39-11.23-1.65-1.06-.37-1.66-1.12-2.68-1.26-.83.75,3.37,3.41,4.05,3.64,2.94.98,6.52.49,9.04,1.36,3.54,1.22-2.77,2.54-4.16,1.26-.9.5-.24.93-.3,1.42-.48,4.12-1.68,7.55-2.22,11.33-.69,4.84.06,10.06-1.85,14.67,1.45.09,3.11-.27,4.47.32.59.25.63.09.52.93l-6.21-.44c-.49-.57,1.1-5.6,1.22-6.83.2-2.12-.13-4.42.05-6.6.27-3.22,1.46-6.53,1.99-9.65.3-1.76-.19-3.83.87-5.57l-2.91-.42c-.19,1.12.23,2.32.17,3.38-.51,8.56-2.83,20.22-4.37,28.81-.59,3.29-2.64,8.16-2.85,10.91-.12,1.57.69,3.09.4,4.72.65.15.3-.59.68-.84.84-.57,1.78-.44,2.64.02.72-2.39.21-4.84.46-7.24.28-2.65,1.49-5.4,1.39-8.17.51-.78,5.88-.02,6.47,1.27l-5.4-.41c.22,2.45-1.09,5.55-1.23,7.75-.06,1.02.43,1.86.43,2.85,0,1.79-1.23,3.5-.45,5.61-1.36.35-2.79-.41-3.97-.44-.98-.02-2.39.86-2.91.04-1.44-2.26,2.13-14.12,2.68-17.31.42-2.42.51-5.28.93-7.8,1.3-7.65,2.71-15.29,3.94-22.95-.17-1.34-6.57-2.26-6.07-7,.27-2.58,3.38-4.43,3.25-5.76s-1.77-3.98-2.22-5.72c-1.07-4.11-1.74-7.34-3-11.55-1.45-4.82-1.57-10.11-2.8-14.66-.5-1.84-1.72-3.38-2.29-5.2-.89-2.85-1.06-6.34-1.27-9.33,2.82,2.28,1.62,6.18,2.26,9.17.35,1.62,1.64,2.86,2.22,4.44,1.42,3.88,2.02,9.44,2.96,13.67s1.67,8.56,2.64,12.75c.72,3.13,2.85,6.28,2.39,9.87l2.52-.18c1.46-.97-1.5-7.99-1.91-9.78-2.85-12.26-5.77-24.4-9.35-36.39-.46-1.54-1.34-3.35-.2-4.79.82.67,1.27,1.54,1.66,2.5,1.58,3.92,2.11,7.38,2.71,11.43.47,3.15,2.22,6.23,3.13,9.35,1.75,6.01,2.71,12.36,4.05,18.41.49,2.2,2.32,6.48,1.98,8.41-.38,2.13-4.5,3.66-5,1.05Z"/>
          <path class="cls-1" d="M26.25,100.56c.54,1.57,1.13,2.82,1.54,4.48,2.25,9.15,4.32,20.58,5.82,29.94.32,1.97.73,3.89.54,5.9-.62,0-.78-1.26-.94-1.76-.56-1.77-.97-3.87-1.36-5.71-2.3-10.77-3.56-21.81-6.43-32.45l-6.68,2.33,10.43,45.9c-1.41.21-2-.8-2.39-1.98-1.06-3.19-2.04-8.21-2.55-11.58-1.24-8.08-2.95-16.24-4.83-24.28-.58-2.51-1.75-4.86-1.88-7.48-3.02,1.13-6.25,1.29-9.33,2.1-2.07.54-3.5,2.4-5.13-.74-.66-1.26-2.91-7.38-3.01-8.64-.16-1.93.08-2.72,1.86-3.55,5.96-2.78,14.2-3.76,20.61-5.59,5.15-1.47,14.81-6.29,19.56-5.85,1.25.12,2.88.78,3.41,2-.01,2.37,3.34,7.48,2.01,9.28-.43.59-11.38,5.25-12.93,5.78-2.61.9-5.59,1.46-8.31,1.88ZM2.96,93.91c.42-.47,1.77,1.1,2.02,1.51,1.13,1.92,1.4,9.03,4.38,8.88,9.26-3.53,19.46-5.34,28.65-8.83,1.53-.58,6.51-2.51,7.53-3.28.39-.3.65-.37.67-.97.04-1.4-2.16-7.04-3.72-7.53-3.32-1.05-12.37,3.17-16.15,4.27-6.52,1.9-12.91,2.5-19.33,3.96-1.29.29-3.39,1.12-4.41,1.82-.52,1.5,1.09,7.27,1.73,8.98.48,1.28.72,2.44,2.38,2.4l-3.74-11.22Z"/>
          <path class="cls-1" d="M40.81,125.09c-.55.1-.59-.67-.77-1.09-.27-.65-.44-1.21-.61-1.88-1.95-7.54-2.72-15.61-4.44-23.21.81-.16,1.01.37,1.33.95,1.66,2.97,4.02,15.82,4.44,19.68.2,1.86.34,3.73.04,5.57Z"/>
          <path class="cls-1" d="M48.71,120.51c-.97.25-.68-.2-.94-.53-1.48-1.86-1.83-5.65-2.33-8.05s-.87-5.21-1.41-7.74c-.57-2.72-1.77-5.38-1.55-8.22.63.11.8.76,1.03,1.25,1.65,3.47,1.96,6.54,2.82,10.07,1.05,4.31,2.55,8.76,2.39,13.2Z"/>
        </g>
        <path class="cls-1" d="M54.12,132.16v.83h-6.86c-.18,0-.64-.52-1.04-.42v-.41s7.9,0,7.9,0Z"/>
      </g>
      <g>
        <g>
          <path class="cls-1" d="M278.74,2.42h.61c1.13-2.5,4.79-3.21,4.8.2,0,3.13-3.24,5.68-5.22,7.69-2.26-2.05-6.19-6-4.31-9.3,1.25-2.2,3.65-.44,4.11,1.4ZM279.56,4.09c-.98.7-2.07-3.41-3.53-3.3-2.71,2.74,1.47,5.92,2.92,8.29,1.14-1.98,4.7-4.66,3.91-7.22-.56-1.81-3.16,1.14-3.29,2.23Z"/>
          <path class="cls-1" d="M279.56,14.9c-.88.03-1.67-.27-2.04-1.12-.32-1.3,1.41-2.28,2.45-1.6l.77,1.18c-1,1.31.02,2.22-1.47,3.12-.72.43-.77.67-1.38-.14l1.66-1.45Z"/>
          <circle class="cls-1" cx="295.68" cy="93.35" r="1.43"/>
          <path class="cls-1" d="M266.25,94.32v1.25s-1.42-.41-1.42-.41l-.67,1.24h-.82s-.83-1.45-.83-1.45c.9-1.1,2.5-.5,3.74-.62Z"/>
          <path class="cls-1" d="M238.38,90.99c1.95.71,1.71-1.33,2.79-1.62.62-.16,1.19.25,1.6.21.66-.07,2.5-2.72,3.93.16l-2.29-.73c-2.03,1.09.36,1.98.22,3.65h2.49c-.14-2.96.19-6.01.02-8.96-.2-3.53-1.9-9.92-.2-13.05.08-.14,1.79-2.36,1.93-2.44.51-.29,1.57.17,1.59-.29-.72-.1-3.97-2.43-3.33-3.12s1.72,2.05,2.29,2.07c1.22.2.17-.74.41-1.26.78-1.71,3.66-.11,3.95-.4-.1-2.55.14-5.15.02-7.71-.14-2.85-1.62-8.73-.21-10.98.58-.92,4.05-3.14,1.02-2.93v-.82c1.17.18.94-1.17,1.44-1.68.37-.38,3.89-.98,4.78-1.25l-.63-16.61,4.22-2.07-.65-2.5,2.08,1.24-.83-1.66,2.04-.04c-.1-1.59,1.43-3.49,2.53-1.63-3.34.48-1.1,1.86.21,2.91.82-.54.43-1.67,1.03-2.31.11-.12,2.88-1.04,3.12-1.05,2.08-.13,4.03,1.6,3.54,3.78l.83-1.66,1.66,1.66,1.02-3.23c1.59,1.27,3.01-.34,4.1-.04.77.21,1.25,1.65,2.16,1.63.57-.02.94-.67,1.36-.79.18-.05,3.28,1.08,3.38,1.24.23.36-.09,1.24.03,1.74.09.37,1.86.77,1.27,2.36l3.68.48.05,14.08c1.22-.16,1.99.06,2.91.83.22-1.77,2.12-2.05,3.33-2.91-.02,1.69-.35,3.25-1.6,4.42l.98,2.65c1.16,1.41,5.69-1,6.03.62-.01.8-.78,1.29-1.46,1.44-.37.08-1.57.28-1.44-.4l1.66-.83-3.33.41c-.49.38,1.11,3.75,1.23,4.38.48,2.38.13,5.42,0,7.86v8.55c1.44-.87,2.7-.71,4.16,0-.04-1.19.32-1.9,1.67-1.66l-.86,3.51c3.62,1.09.4,1.85.6,3.36.05.39,1.02,1.07,1.31,1.84,1.71,4.46,0,12.72.58,17.66,1.61.22,1.69,1.29,2.11,2.72.63.01.47-.76,1.08-1.2,1.5-1.09,1.68.38,2.69.97.72.43,2.36.55,2.71,1.04.52.72-.18,1.46-.14,1.93.05.5,1.95.18.86,2.59-.32.71-1.22.25-.96,1.12,2.04,1.91,5.2,2.87,6.83,5.23,6.18,8.93-12.51,13.49-18.27,14.11-17.02,1.85-35.36,2.25-52.41.83-7.31-.61-19.4-2.89-24.96-7.9-3.75-3.38-1.12-8.48,2.09-11.22.61-.52,2.52-1.42,2.68-1.93.2-.67-1.48-2.65-.82-3.9l-1.24,1.25c-.09-1.17.12-2.39.01-3.55-.05-.54-.43-1.11-.43-1.23v-23.91h.83c-.12.41.42.89.42,1.04v25.57l2.11-1.52c-.16-.82-.44-1.56-.47-2.41-.22-5.78-.47-13.94,0-19.58.11-1.32.52-2.28.85-3.51,1.11.08,0,1.65,0,1.87v23.49ZM276.13,17.5c-1.96-2.01-2.86.49-4.85.34-1.89,5.28,4.81,4.75,5.3.68-.1-.35-.19-.76-.45-1.02ZM285.37,17.41c-1.65.4-2.33.91-4.13.41l-.43,2.48h1.67s0,2.08,0,2.08l4.16.83c.64-1.15-1.17-2.47-1.16-2.7,0-.24.73-.61.68-1.18-.04-.5-.82-1.24-.79-1.93ZM291.21,19.06c-2.05-.61-2.94-1.45-4.57.62,1.63.79.72,1.99,1.03,2.68.07.15,1.22,1.68,1.33,1.7,2.36.56,5.02-2.17,1.85-3.59l.37-1.41ZM269.72,21.02c-.95-1.4-.59-2.59-3.02-1.31-1.89,1-.59,2.29-1.28,3.92,2.32.66,4.55.64,2.5-2.07l2.49.41c.37-1.06-.54-.72-.69-.95ZM282.06,24.88c.14-1.43.14-3.59-1.54-4.07-.35-.1-2.57-.37-2.85-.34-.58.07-1.44,1.85-2.65,1.53l.4,3.28c2.46.52,4.29-.38,6.64-.4ZM286.22,26.96s-.02.39-.32.42c-1.74.2-2.45-1.67-4.03-1.69-.99-.01-2.05.68-2.99.72-1.11.05-2.31-.52-3.68-.27-1.15.21-1.76,1.81-3.29,1.68l-.93-2.54c-2.38-.74-5.62.5-7.04-2.08l-2.63,1.09c.66,5.46,1.12,11.04.31,16.54l-.57.69-1.64-.84-1.26,1.67-.41-.85-1.46.65c1.44,1.45-.22,3.38.62,4.79.64,1.08,1.83-.63,2.71-.43l.02,1.21c1,.77,5.87-1.15,4.97-2.04l-2.49-.21,2.91-.21c.39-1.61-1.64-1.86-1.66-3.32l2.28,2.07c1.63-1.29.48-4.67,1.65-5.82.75-.74,1.92-.22,2.84-.48.8-.23,1.14-1.5,2.17-1.61,1.43-.15,1.18.96,1.53,1.18.39.24,1.35.06,2.01.27,1.87.6,2.35,2.64,2.48,4.39l1.66-2.08.83,2.08c.62-1.51.82-3.94,2.91-3.32.33,1.36-.84.48-1.28,1.08-.41.57-.66,1.96-1.21,2.65,3.26.38,1.95.5,2.8,2.39.95,2.11,6.3.07,5.33-1.96-.8-1.67-2.73-.72-3.56-2.09,1.98-.41,2.81.82,4.31,1.63.78-1.45,2.85-1.32,3.59-1.84.78-.55.38-2.83,2.52-2.96v-13.2s-3.3-1.04-3.3-1.04c-.1,2.13-5.36,1.52-5.86,2.05.21,2.07-.22,1.31-.85,1.64l-.05-2.86-3.27-.88c-.26,1.41.5,2.09,1.46,2.91l.41-.83,1.46,1.66ZM275.4,43.17c1.3-1.34,2.06-1.23,1.57-3.44s-1.62-1.23-2.95-1.63c-.72-.21-1.12-1.47-2.16-1.16l-.67,1.62c-1.24.36-2.79-.98-3.51.47-.47.95.23,1.59.11,2.22-.18.99-1.36,1.04-.25,2.93,1.64,2.81,3.8.44,4.1.67.86,2.26-1.32,2.96-2.9,3.95l1.65.21v3.33c1.24-.24,4.46-3.37,2.92-4.37-.77-.5-1.93,1.06-1.67-.61l2.08-.24c.97,1.09.86,3.2,2.7,3.12.81-.04,1.46-.79,2.5-.83,1.7-.07,3.71,1.52,4.96-.83,1.16-2.17.26-2.05-.36-3.32-.27-.56-.2-1.59-.62-1.88-.51-.35-1.57-.05-2.24-.26-.6-.18-.97-1.04-1.32-1.07-.41-.03-3.05,1.35-3.96,1.14ZM296.74,42.88c.98-1.32,4.81-2.35,1.34-4.71l-2.94.82-.18,2.1,1.66-.41v1.24s-3.74-.41-3.74-.41c.34,1.46,1.61,2.17,1.28,3.91-.06.33-2.5.5-2.11,1.9.51.46,3.21-1.31,3.61-1.79.65-.77.66-2.1,1.08-2.67ZM292.45,41.93c-.71-.56-2.95,2.47-2.49,2.91.87.18,2.7-.71,2.84-1.51l-.35-1.39ZM302.73,43.3c-.16-.22-1.88-1.37-2.18-1.4l-3,1.37c-.64,2.02-.85,4.03-.93,6.14,1.19.23.74-.4.85-1.2,1.17.37,2.13-.65,2.75-.76.54-.09,1.27.55,1.82.13.88-.68,1.48-3.22.69-4.28ZM270,70.62c.75.18,3.17,1.5,3.74.83.85-1-2.71-1.75-2.9-2.28l2.49.2c-.64-1.99,1.52-3.77-.83-5.2,1.12-.7,2.41.98,3.57,1.05.97.06,1.4-.88,2.41-.85.31.01,2.9.77,3.27.94,1.12.5,1.54,1.64,1.56,2.81,1.39.38.46-1.37,1.66-1.66l.04,1.63,4.12.45c-.23,1.75.06,3.23,1.96,3.68,1.26.3.75-.61,1.26-.75.37-.11.9.1,1.25-.1.45-.25,1.51-2.53.93-3.24l1.22,1.4-1.63,2.34,2.91-.84c-1.07-4.83,1.28-3.07,3.47-3.8.88-.29,1.43-2.93,4.01-1.6l-.42-17.88c-1.55.57-3.25.71-4.81,1.22-.89.29-1.84,1.22-2.48,1.27s-1.37-.41-2.07-.42c-1.22-.02-4.83.34-5.41-.43-.2-.26-.08-.91-.29-1.14-.45-.49-3.51-1.39-3.99.19-.84,2.79,1.38,1.74,1.51,1.83.33.22.9,2.38,2.16,2.03l.41-2.49v3.33c-2.02.49-3.3-2.1-4.88-2.43s-3.51.87-4.43.68c-.54-.11-.9-1.03-1.29-1.06-.31-.02-1.16.78-2.1.77-1.01-.01-1.57-.99-2.46-.9-.22.02-.53,1.05-1.07,1.48-.39.31-2.7,1.46-3.1,1.48l-.64-3.34c-2.01.08-12.27-1.31-13.11-2.51-.22-.31-.18-.84-.22-1.22-1.87-.55-1.71,2.05-1.66,3.54.07,2.14.74,4.49.87,6.62.17,2.79.06,6.04-.3,8.78,1.33.61,1.98,2.18,2.8,2.87.47.4,1.39.49,1.56.72.13.17.51,2.25.44,2.54-.17.71-1.41.98-1.19,1.95l3.31-1.28c.35-.5-1.47-2.8-1.56-3.57-.14-1.21,1.79-3.22,2.82-1.59l-1.67.2c-.23,1.11.21,3.83,1.51,4.07.36.07,2.28-.43,2.48-.72.76-1.09-.88-3.96,2.67-2.52.06.8-1.1.22-1.69.59s-.37,1.63-.39,2.31c2.62.33,3.1-2.04,3.36-4.12,1.76-.43,2.86.66,3.71,2.04l-2.91-1.24c.11,1.05-.16,2.32,0,3.32-2.46-.58-3.75,1.29-3.27,3.69,2.55.9,5.03.7,5.35-2.44l-1.69-.19c-.41-.24-.33-.68-.39-1.06ZM269.58,46.51c-1.94-1-3.63.07-4.16,2.07l2.07-.21,2.08-1.86ZM295.78,47.34c-.19-.19-3.99.76-4.16,1.66l3.88-.41c.48.05.32-1.2.28-1.25ZM307.83,64.39c-2.02-.04-3.32,1.26-2.87,3.3l1.23.02-1.24,1.45,2.07,1.04-.83,1.66c2.52,1.07,2.58-.99,3.76-2.69-1.15-.72-.28-3.05-.43-3.12-.64-.33-1.57.52-1.68-1.66ZM282.43,68.49c.2-.28.09-1.34-.03-1.74-.45-1.41-1.84-.99-2.95-1.22-1.67-.34-.92-1.04-2.99.51l-2.3-.83c1.18,2.37-1.29,4.77,1.54,6.17,1.6-.58,3.3.61,4.49-.79.39-.46.42-1.25.73-1.55.37-.38,1.37-.35,1.52-.56ZM258.77,71.03c.33-.28-2.89-4.57-3.32-4.8-1.11-.61-1.61.71-2.22.59s-1.39-1.43-2.36-1.19l.84,2.69-1.52,1.23c-.29,4.07,4.27,3.24,6.91,2.72l-1.24-1.66,2.91.41ZM299.11,71.86l-1.25.63.62,1.03c1.49-1.54,4.55.47,5.84-.81,1.37-1.51.08-2.27-.09-3.2-.16-.82.7-2.4-.94-3.28-1.25-.67-1.5,1.54-2.36,1.83s-2.12-.05-3.06.06c0,1.29-.44,2.81,1.25,2.92v.82ZM288.71,69.37c-.82-.28-2.07.45-2.66.33-.56-.11-.86-1.14-1.7-1.16-2.04-.04-3.64,2.56-5.2,3.53,1.09.76.9,2.48,1.63,3.35,1.23,1.46,2.14-.27,3.14-.23.62.03,1,.77,1.64.8.3.01,3.44-.46,3.59-.56.31-.21.89-2.52.77-2.89-.17-.55-1.12-.5-1.23-.95-.15-.63.11-1.52.01-2.21ZM249.61,70.62c-2.97.08-1.66,1.81-1.64,3.51.06,4.33.17,8.69.25,12.98.04,2.15-1.11,4.89.56,6.79-1.19-.13-1.76-.95-3.13-.87-1.1.06-1.32.87-2.28.87,1.2-1.67-.8-5.01-2.51-3.11-.84.94-.27,1.29-2.44,1.07-.51.71-.08,1.56-.18,2.17-.06.38-.55.68-.63.99-.19.69,1.68,1.32.77,2.62l3.28-.47.46-1.61-.78,3.44c1.37,1.64,1.33,4.07,3.81,3.55.48-.1.93-.59,1.39-.64,1.49-.15,1.94.81,3.7-.93.99-.98.02-3.06.62-4.58l.83.42c-.14-1.28-.01-4.02,1.85-3.76.56.08,1.02.72,1.27.72.33,0,1.04-.96,1.73-1.05.35-.04,4.2,2.09,4.5,2.43.88,1,.62,2.51.64,3.73l2.07-1.66.83,2.08c-.09-.68,1.93-3.55,2.5-2.91.53,1.95-.97,1.59-1.66,2.91l1.48-.32c1.06,2.24,1.73.59,3.32.34,2.58-.41,2.19.7,3.54,1.42.89.47,2.3.24,2.87,1.32l-1.23,2.44c1.25.48,1.52,2.11,2.72,2.3,1.06.17,2.18-.41,3.29-.45,6.47-.21,12.64.06,19.1-.86,1.62-.23,10.73-2.34,11.29-3.27.47-4.3.2-8.63-.22-12.9l-1.82.39c-1.13-.64-.73-1.63.17-2.29l1.65.23c-.63-4.02,1.02-12.18-.38-15.63-.36-.89-1.52-1.64-1.68-.69-.3,1.77-1.92,1.17-3.57,1.74-.77.26-1.37,1.02-2.14,1.19-1.39.31-7.93.51-8.43.93.39,4.04-1.63,3.23-4.17,1.64l.86-1.21c1.03-.65,1.03,1.96,2.47,1.63-.16-1.59-.18-2,1.24-2.7l-2.67-2.24c-2.75.59-3.21,1.43-2.32,4.11-.62-.3-1.16-.46-1.86-.45-2.22.02-4.67.55-6.71.76-.49.05-1.07-.38-1.55-.26-.75.19-.71,1.69-1.72,1.63-.18-.78.86-1.63.97-2.39.1-.66-.27-1.15-.35-1.77l-1.84.44-.81-.83-2.62,2.48c-2.93.44-6.22-.91-9.06-.41-.8.14-4.49,2.39-4.8,2.06-.03-1.26.05-3.15,1.24-3.74.42.51-1.15,2.92.2,2.49,1.59-.51,4.24-2.14,3.96-4.15l-2.91,1.24,1.25-1.45c-1.87-.91-2.92,2.07-4.39,2.3-1.27.2-3.63-.63-5.03-.82-.74-.1-1.37.33-1.96.28-.99-.09-2.51-1.34-3.56-1.59l.38-1.62ZM274.02,71.94c-2.36.72-2.61,4.74.15,2.65,1.44-1.09,2.37-3.42-.15-2.65ZM312.84,93.91c2.91-.18,1.58-2.7.2-4.16l-.2,4.16ZM261.68,108.46c-.15-.06-2.19.52-3.12.44-1.6-.14-2.04-1.47-3.53-.86.8-1.02,1.21-2.04.63-3.34-.59-1.05-2.52,1.48-2.71,1.26l1.24-2.49-2.51,1.02c-1.08.33-.35,2.59-1.43,2.3-.42-.11-1.96-1.2-1.46-1.66l1.24.41c-.67-1.36.91-1.45,1.66-2.29-.59-.44-1.47.11-1.25-1.03h-.41c.01.2,0,.55-.12.68-.83.8-6.11.43-7.52.59l-1.08-2.34c-2.56.33-2.98.2-3.98-2.26-5.86,2.6-5.58,7.61.06,10.35,7.36,3.58,14.31,4.42,22.3,5.57.41.06,1.66.13,1.57.71-6.87-.36-13.81-1.19-20.29-3.62-2.49-.93-7.01-2.69-8-5.11-1.41-.3-.8,1.12-.36,1.82.83,1.32,4.37,2.98,5.91,3.66,16.5,7.34,41.45,6.01,59.14,4.5,3.09-.26,6.48.22,9.58.02,5.12-.34,16.24-3.56,19.53-7.5.28-.33,1.09-.83.42-1.25-2.96,2.84-6.15,3.49-9.77,4.79-2.28.81-4.51,2.99-7.08,1.24,5.71-2.69,14.23-2.52,17.04-9.15-.39-1.22-1.25-2.29-2.48-2.7,1.04,2.06-.91,4.03-2.52,5.17-7.29,5.18-32.54,6.55-41.78,6.4-2.29-.04-5.2-.7-7.47-.78-10.09-.35-22.86-.2-32.25-4.35-1.78-.79-6.03-2.86-4.79-5.19,6.31,6,15.44,6.87,23.71,7.9,16.94,2.1,42.97,3.26,58.85-3.54,2.8-1.2,5.9-2.66,6.22-5.98l-4.37-2.55-1.42,1.26.41-3.74c2.18.75,3.18-.9.86-1.71l.2-2.05c-.5-.68-1.69-.17-2.23-.48-.44-.25-1.06-3.14-2.53-.49-.16.29-1.14,2.71-1.15,2.87-.1,1.54,1.9,1.62,2.28,1.92.06.05-.22.53-.09.76.63,1.14,1.43,1.51.98,3.34l-1.52-2.12-3.89.04c-.03,2.94.79,4.18-2.27,5.42-5.9,2.39-20.69,2.86-27.49,2.91-1.77.02-3.06.42-4.13.42-.79,0-1.69-.59-2.44-.47-.27.04-2.45,3.64-4.43,2.53-.1.73.94.39,1.45.41,8.8.36,19.6-.04,28.22-1.72,2.68-.52,5.27-1.55,7.96-2.03.52.12-.48.97-.6,1.06-2.29,1.7-15.83,3.57-19.38,3.88-4.87.42-9.31-.12-14.12-.36-1.86-.09-5,.35-6.57-.09-.33-.09-.71-.37-.71-.74l3.33-.21-2.77-2.23c-1.43.97-4.24,2.68-5.97,1.82-.47-.23-.76-1.02-.82-1.04,1.99,1.2,1.69.61,3.24.12,2.4-.75,3.12-.7,3-3.86,1.2.48.48,2,1.68,2.69,2.1,1.21,5.98,1.93,5.41-1.65-.17-1.09-1.92-1.02-1.26-1.86.19-.25,2.71-.29,2.08-2.08l-2.91.42c.14-3.65-2.8-2.14-4.96-1.2l-.24,3.28c-1.08-.82-.04-1.92-.19-3.11-.27-2.03-2.38-.44-3.49-.61-.25-.04-.37-1.28-1.73-1.23-.57.02-3.59,1.44-3.92,1.88-.25.35-.24,1-.55,1.31-.42.42-1.64.37-1.96,1.18,1.16,1.67.06,4.18,2.36,4.66,1.67.35,2.24-.81,2.77-.72.44.08.56.73.67.8ZM258.01,95.1c-.24-.17-.47-1.46-1.16-1.6-2.22,1.66-1.34.95-2.97.47-.95-.28-1.59.69-1.7,1.48-.15,1.16.78,1.68-.88,2.87l1.7,3,2.37-.32,1.1,1.62c1.6-1.41,1.17-3.37,3.89-2.96.74-1.58.97-4.25-1.15-4.72-.4-.09-1,.3-1.2.15ZM313.51,95.59c-1.1.63-1.69,2.05-.43,2.86l2.25-1.01c-.41-.51-1.01-2.02-1.82-1.85Z"/>
        </g>
        <g>
          <path class="cls-1" d="M307.43,114.7c.03.59-1.5.63-1.99.71-3.87.61-7.82.98-11.74.95.15-.86.65-.52,1.1-.6,1.43-.24,2.79-.07,4.11-.23,2.84-.33,5.62-1.16,8.52-.83Z"/>
          <path class="cls-1" d="M285.8,116.77c-1.59-.05-3.2.08-4.79,0-.68-.03-1.16-.37-.62-.83,1.62.29,4.39-.78,5.41.83Z"/>
        </g>
      </g>
      <g>
        <path class="cls-1" d="M507.22,195.22c-2.37-2.49-2.66-5.81-1.8-9.01-3.96.69-8.23,1.17-12.27.83-1.5-.13-3-.72-4.56-.85-4.95-.38-9.89.64-14.78.23,1.11-.71,3.47-.96,4.78-1.04,7.18-.46,14.76.04,22.04-.42,2.34-.15,5.37-1.73,7.25.26-.01,1.77-1.31,3.34-.95,5.05,1.11,5.19,8.9,7.38,13.36,8.71,1.58.47,4.1.59,5.4,1.26.9.46.63,1.24,1.35,1.35-.04-7.11-2.13-14.06-3.27-21.05-2.05-12.56-3.56-25.14-5.04-37.79-.43-3.66.04-8.22-2.31-11.41-1.41-1.91-4.76-3.4-6.8-4.84-13.34-9.36-27.9-17.22-41.43-26.36-1.25-.85-3.78-2.58-4.78-3.54-.45-.43-.97-.73-.82-1.46.66-.1,1.13.31,1.63.65,15.58,10.85,31.73,20.34,47.83,30.35,4.16,2.59,6.72,4.17,7.82,9.23,2.77,12.75,3.06,27.43,5.17,40.57,1.12,6.99,4.53,17.68,4.44,24.17-.11,7.44-6.65,6.3-11.31,8.58-1.06.52-2.77,2.43-2.96,2.44-.41.02-.66-.82-.55-1.37.77-4.09,10.82-3.05,11.8-7.36-2.11-2.63-5.75-2-8.65-2.59-2.81-.58-8.63-2.57-10.57-4.61Z"/>
        <path class="cls-1" d="M508.33,236.53l2.08-.83c-3.56-.09-5.86-1.48-6.24-5.2-.85-8.3.3-18.62.44-27.01l-.02-8.96c1.08-.33,1.19,1.1,1.25,1.86.74,8.61-.07,18.34.43,27.05-1.05,4.23-.89,12.76,5.41,9.9l-.04-19.91.85-12.66c.64-.06.7,1.05.78,1.5,1.18,6.7,1.11,23.71.47,30.73-.26,2.8-1.47,1.4-2.91,3.11h6.24v.42h-8.73Z"/>
        <path class="cls-1" d="M495.02,188.71c1.18,3.75-.15,7.08-.41,10.6-.3,4.13.14,8.3-.45,12.44-.14,1.01-1.47,3.1-.41,3.79l3.35.19c.34-1.92-.45-3.81-.45-5.61,0-1.09.44-2.01.45-2.91.09-5.75.12-11.58.84-17.26l1.05,1.23-.64,25.18-.39.86c-1,.7-1.94-.41-2.71-.47-.58-.05-1.29.43-2.04.2-1.5-.47-.29-4.34-.25-5.56.18-5.77.25-10,.81-15.82.19-1.94-.95-6.44,1.25-6.86Z"/>
        <path class="cls-1" d="M511.65,137.98c1.55,6.41-1.64,12.92-2.09,19.32-.4,5.69,2.07,17.23.05,21.67-.88,1.94-1.7.87-1.73-.86s.74-3.59.88-5.39c.49-6.43-.41-13.48-.02-19.98.25-4.19,1.17-9,1.7-13.28.09-.73.23-1.79,1.21-1.48Z"/>
        <path class="cls-1" d="M496.69,120.94c.11.56-.15,1-.69,1.17-1.86.59-5.64-.93-7.85-.36l-7.82.8-.69-.78c3.84.26,7.65-.58,11.44-.84.94-.07,1.96.8,2.28-.41-2.14.07-4.32-.1-6.47-.02-2.61.1-6.68.15-9.1.47-2.06.27-4.72,2-6.7,2.07s-3.99-2.07-6.43-1.27l.41,1.24c-1.47-.06-1.73-1.12-.31-1.76,2.85-1.28,3.96.95,5.92.95s4.85-1.9,7.48-2.12c3.31-.27,11.45-.73,14.58-.4,1.49.16,2.56.91,3.95,1.26Z"/>
        <path class="cls-1" d="M505.42,132.58c.1.73-.94.39-1.45.41-1.66.07-3.34-.1-4.99,0-4.06.25-8.22,1.44-12.27.41-.36-1.17,1.94-1.22,2.69-1.26,5.35-.34,10.68.71,16.03.44Z"/>
        <g>
          <path class="cls-1" d="M519.98,95.99c.58-.09.8,1.15.8,1.48-.02,4.3-3.46,12.71-4.77,17.22-.58,2-.78,5.21-1.78,6.96-.86,1.51-1.77,1.09-1.78-.49,0-1.83,2.62-8.12,3.26-10.5.84-3.11,1.36-4.92,2.38-8.02.68-2.07.92-4.56,1.88-6.64Z"/>
          <path class="cls-1" d="M520.39,128.83c-2.04.11-.5-3.96-.21-5.41,1.24-6.17,2.78-12.74,4.49-18.8.56-1.96.99-4.71,2.38-6.15l-6.66,30.35Z"/>
          <path class="cls-1" d="M528.3,151.71c-.07.48-.46.79-.95.76-.59-.03-5.41-1.98-4.45-2.84l5.4,2.08Z"/>
          <path class="cls-1" d="M534.95,199.53c.45.56.05.79-.62.83-1.45.07-2.92-.05-4.37,0-.38-2.05,4.7-1.18,4.99-.82Z"/>
          <path class="cls-1" d="M550.83,106.86c-.4.44-1.13,6.89-1.51,8.26-1,3.53-1.95,6.19-2.9,9.99-1,4-3.35,9.78-3.87,13.6-.36,2.68.08,5.36-.63,8.1-.87,3.37-3.47,5.03-3.62,8.9-.07,1.91,4.56,4.31,3.65,7.34-.52,1.72-5.94,4.05-6.03,4.63.42,3.3.9,6.65,1.64,9.9.82,3.6,2.64,7.8,3.11,11.44.24,1.87-.05,3.74.21,5.61.34,2.38,2.25,7.86,3,10.73.85,3.25,1.75,6.51,2.71,9.73-.24.5-.57.53-1.04.64-.84.18-3.57.85-4.11.83-3.85-.15-2.45-3.46-2.77-5.98-.15-1.18-.93-2.33-1.12-3.46-.58-3.45-.78-7.22-1.39-10.66-1.7-9.51-4.31-18.93-5.36-28.53l-5.82.41.25-1.28,9.01-.91,3.64-2.38c-3.79.65-8.45,1.71-12.29,1.27-.84-.1-1.55-.18-1.43-1.27,4.56-.82,9.8.09,14.14-1.87,2.28-1.03.91-2.06-.21-3.54-.11,3.33-5.62,2.17-6.28,0-.42-1.36,2.1-8.35,2.54-10.4.41-1.91.36-3.86.71-5.53.24-1.16,1.47-2.62,1.88-3.94,2.3-7.46,3.56-15.92,5.64-23.47.93-3.39,2.33-6.63,3.63-9.88l-4.99-1.67-8.13,29.92c-1.05,4.35-1.5,9.01-2.46,13.34-.16.7-1.03,4.14-1.68,4.13-2.04-1.37-.32-3.79.09-5.73,2.63-12.45,6.8-24.15,9.74-36.42.46-1.9.93-3.84.8-5.81l-5.42-2.35c.47,2.2-.74,3.75-1.23,5.64-1.09,4.18-2.19,8.44-3.15,12.65-1.8,7.91-2.62,16.2-5.82,23.71-.7-.5-.65-1.05-.6-1.81.11-1.75,1.01-5.01,1.41-6.94,2.35-11.35,6.58-22.21,8.53-33.64-4.59-1.31-8.9-3.45-13.3-5.21-2.61-1.04-6.93-1.04-6.67-4.99.06-.94,2.35-6.88,2.91-7.51,3.66-4.08,11.18.98,15,2.5,8.37,3.32,17.24,5.42,25.39,9.13,1.2,1.67-1.9,9.88-3.17,11.45-.96,1.19-2.42,1.11-2.62,1.33ZM553.25,93.91c-1.83-.26-3.26-1.82-4.89-2.39-1.78-.62-3.38-.36-5.11-.71-2.91-.59-7.35-2.07-10.18-3.13-4.26-1.6-8.14-4.04-12.51-5.39-4.73-.21-7.38,7.9-4.03,9.86l31.13,11.72h1.39c.43-.38,1.7-7.62,2.92-8.94.45-.49,1.3-.38,1.27-1.01ZM554.87,94.79l-1.2-.47c.05,1.16-1.14,2.1-1.44,2.93-.85,2.35-.45,4.02-2.3,6.44-.41.54-.42.87.2,1.02.67.12,1.03-.15,1.47-.61.73-.77,3.74-8.74,3.27-9.32ZM550.34,106.38l-2.91-.83c-.74,4.14-2.46,8-3.55,12.05-2.76,10.35-5.42,20.78-7.97,31.12-.78,3.16-1.44,6.4-2.64,9.42,4.8,2.96,3.12-2.06,3.85-4.88.57-2.19,2.6-4.6,3.3-7.1,1.15-4.13,1.48-8.93,2.66-13.56,1.01-3.98,1.68-9.28,2.8-13,.53-1.78,2-3.67,2.29-5.62.42-2.8-.74-3.7,1.33-6.89.26-.4.99-.05.84-.69ZM534.95,167.5l-2.91.42c2,11.01,4.77,22.07,6.54,33.17.44,2.76.93,5.55,1.35,8.22.21,1.32-.55,4.69.71,5.11.71.23,4.15.52,4.25-.55-.59-2.36-2.17-4.94-2.75-7.19-.51-1.99-.3-4.14-.62-6.03-.29-1.72-1.61-3.57-1.89-5.18-.34-1.99-.26-4.32-.63-6.44-1.24-7.06-4.71-14.09-4.04-21.53Z"/>
        </g>
      </g>
      <g>
        <path class="cls-1" d="M205.11,84.76c.7,2.51,2.79,2.17,4.6,3.09,3.06,1.57,1.84,4.44,2.05,7.3l-5.44-2.79.03-5.11c-1.73-.4-1.02,3.03-1.25,3.32l-1.19-1.37c1.25-1.59,1.43-2.72-.27-4.03-.86-.31-.84,1.5-.82,1.87.06,1.09,1.31,3.41-.85,2.3-.88-2,.71-3.52.64-5.42,1.54.29,3.31-.32,4.58,1.03.57.61-.04,1.06-.22,1.05-.32-.03-1.01-1.56-1.87-1.24ZM210.93,93.9c.3-2.85,0-5.54-3.32-5.82l.44,1.43c0,.25-.78.18-.86.49-.67,2.69,2.29,2.6,3.75,3.9Z"/>
        <path class="cls-1" d="M193.41,94.79c.09.11-.53,2.39-.69,2.75-.88,2.01-5.14,3.33-7.17,3.85.54-1.52.6-4.32,1.29-5.56.86-1.53,3.58-1.78,4.14-2.61.85-1.26.85-3.64.81-5.12.68-.01.83,1.43.84,1.87.05,1.27-.66,3.33-.39,4.1.21.61,1.05.58,1.16.72ZM187.22,99.72c2.93-.46,6.17-2.02,3.95-5.4l-.83,2.08.21-1.66c-1.06-.1-2.05.45-2.71,1.24l-.62,3.74Z"/>
        <path class="cls-1" d="M166.31,52.86c.99.72,1.27,3.86.53,4.45-.29.24-.9.26-.74-.53.73-3.69.04-3.35-3.29-3.97-1.3-.24.41,3.06.68,3.38.65.8,4.65,1.63,4.19,4.02-1.63.13-4.14.16-4.82-1.61-.84-2.19,1.63.33,1.95.54.37.24,1.66.95,2.04.46-.77-1.43-3.18-1.88-4.03-2.83-.97-1.07-1.06-3.41-1.78-4.67.98-.33,4.57.24,5.28.75Z"/>
        <path class="cls-1" d="M208.85,62.3l-1.63,6.47c-3.2.72-5.73-.96-5.02-4.39,2.87,2.38,3.71-1.96,6.65-2.08ZM208.02,63.55l-3.74,2.28c.74.83,1.79,1.19,2.89,1.02l.85-3.3Z"/>
        <path class="cls-1" d="M153.95,68.13c-2.79,3.63-5.86,3.9-9.14.62,2.01-1.41,3.13-3.35,5.93-2.61,1.09.29,1.98,1.86,3.22,1.99ZM151.43,67.33c-1.8-.84-2.86-.43-4.28.77-1.02.86.36.78.46,1.06.04.1-.16.45-.05.62.87,1.44,2.51.85,3.48-.2l-1.65-1.04h2.08s-.03-1.22-.03-1.22Z"/>
        <path class="cls-1" d="M198.87,53.57c-.22.16.26,2.9-2.81,4.05-.62.23-2.04.69-2.6.35-1.27-1.13-1.07-4.28.41-5.02,1.04-.52,4.17.13,5-1.45-.27.33.09.96-1.13,1.57-1.64.83-4.53-.14-4.3,2.79.12,1.59,2.62,1.32,3.59.24.71-.8.79-1.46,1.84-2.52Z"/>
        <path class="cls-1" d="M198.87,51.49c.09-.18-.1-.8.21-1.23,1.19-1.63,3.23-4.38,3.09-.27-.03.76-.46,2.19-.97,2.78-.93,1.08-2.16.67-2.32.8,1.33-1.34,2.84-1.83,1.87-4.16-.53.71-1.35,1.43-1.87,2.08Z"/>
        <path class="cls-1" d="M165.58,73.55c.16.92-.01,1.75-.82,2.29l-2.04-.27c-.28-2.26.91-2.69,2.85-2.02Z"/>
        <path class="cls-1" d="M205.66,77.98c-.36-.4-.61-.98-.55-1.53,2.9-.68,3.73-.13,1.87,2.49-.29-.48-1.03-.62-1.32-.95Z"/>
        <path class="cls-1" d="M183.88,63.95c-2.78,1.08-3.71-2.75-.38-1.89l.38,1.89Z"/>
        <path class="cls-1" d="M180.57,70.21l.2,2.92,2.84-.78c2.38.58.27,3.57-2.64,2.67-2.14-.66-1.62-2.11-1.23-3.79.16-.71-.42-1.21.83-1.01Z"/>
        <path class="cls-1" d="M156.45,59.81c.95.29,2.83.92,2.94,1.87.31,2.79-4.15,1.1-2.94-1.87Z"/>
        <path class="cls-1" d="M175.99,58.56s.26.02.32-.1c.56-1.15,1.02-2.79.93-4.06.68.02.62,1.15,1.11,1.26.78.17,1.75-.27,2.64.19.68.35.82,1.65,1.65,1.88,1.13-1.67.26-4.09,2.49-4.83,1.11-.37,1.22.84,1.96,1.03s2.78-.77,3.87-.36c1.25,2.03-3.31,4.88-3.32,3.12,0-.61,2.14-.65,2.29-1.86.2-1.56-1.83.11-2.91,0-.86-.09-2.7-2.16-2.75.63-.02,1.03,2.52,1.51,3.36,1.45l-.4,2.06c1.44-.17,3.12,1.34,3.15,2.72.01.55-.54,1.14-.51,1.67.03.84,1.69,2.36-.15,3.11.07-1.26.25-2.37-1.23-2.52l.02-.56c2.43-2.39.22-4.16-2.53-3.16,1.11-1.67,0-4.08-2.08-3.12-1.08.5-.89,2.15-2.08,1.87-.99-4.91-6.59-2.31-3.75,1.66h-2.08c-.06-.68.08-1.4,0-2.08-.24.47-.93,1.13-.84,2.08-.22.27-2.44-2.51-2.07-2.91.71-.77,1.37,1.82,2.07,1.66.53-6.56-7.68-4.14-3.31-.22.62.56,3.01,2.17,3.73,1.47l.07,2.85,3.26.9c-1.93,5.67,2.42,3.03,2.86,3.35.2.15.24,1.33,1.18,1.59l2.56-.32c1.09,2.08,2.4,3.66,1.49,6.17-.09.24-1.15,2.4-1.23,2.51-.89,1.1-3.42.32-1.54,3.63,1.28,2.25,7.11,2.34,6.82-1.08,1.58.18,1.29-1.08,1.62-2.29-.03-.46-2.55-.62-2.11-1.92l2.47.44c.09.72.03,1.82.54,2.37,1.27,1.37,5.63,1.14,4.89-1.57,2.47.83,4.41-1.37,1.66-2.7v-.61c3.58-1.19,1.07-5.08-2.08-3.75.54-1.55.25-3.36-1.63-3.55-.95-.1-1.27.76-1.98.92-.36.08-.9-.2-1.4-.1-1.57.33-3.37,1.93-2.83,3.68.22.7,1.21.94,1.18,1.74-1.18.53-1.42.93-1.26,2.29l-2.07-1.24c4.43-.69-.56-3.33,2.05-5.65.18-.16,3.06-2.1,3.25-2.15,1.45-.35,3.19.03,4.68-.11l-3.33-5.4,2.07,1.24c-.01-1.42,4.12-3.29,5.2-3.34s.68,1.45.53,2.2c-.26,1.34-.92,2.57-1.98,3.43l1.24.41c-1.62,1.1-2.9.99-2.94,3.34-.04,1.9,1.54.92,2.76,1.84,1.54,1.16,1.63,3.31.18,4.6,1.5.21,1.69-1.22,2.5-1.85,2.01-1.57,2.11.68,3.33,1.23.85.38,2.72.11,3.23.73s.35,2.87.9,3.78c.37.63,2.46,1.21,2.93,2.15.05,1.4-4.63-.65-5.4-.21-.3-1.17.9-.97,1.65-1.27.1-.14-.44-2.94-.62-3.3-.64-1.23-2.07-.59-3.11-1.05-.57-.25-1.1-1.59-1.83-1.43-1.71.36-1,2.61-1.1,3.46-.17,1.54-1.5,2.27.04,3.77.37.36,2.29,1.58,2.66,1.48l.84-1.25c.32.4,1.68.36.84,1.26-1.81,1.93-5.71-.6-6.04-2.91-.69-.11-.39.56-.41,1.03-.05.9.04,1.81,0,2.71-1.04-.31-.67-1.61-1.21-2.32-.81-1.06-3.51-.74-3.74.5-.15.78,2.36,2.5.57,5.13-.51.75-2.1,1.29-1.84,1.88.84,1.93,3.57,1.44,4.97,2.11s2.19,3.33,2.09,4.76c-1.25-.14-2.48-.42-3.72-.65-.38-.07-1.28-.42-.86.44.87,1.73,4.21,1.98,5.09,4.06.74,1.74.12,4.23.31,6.13l-4.78-2.91-1.04-2.5c-.12-.15-1.56,2.03-2.85-.26-1.15-2.04-.15-4.26,1.62-5.39l-.43-1.84c-.76-.1-.28.84-.5,1.36-.2.48-.63,1-1.15,1.13-.07-.68.4-1.21.45-1.88.13-1.85-3.43-5.45-4.41-7.27-.29,1.03.54,1.94.63,3.12.2,2.49-.8,3.33-2.91,4.37.19-1.23-1.2-2.04-1.22-3.11-.03-1.45,1.86-3.38,1.21-5.21-.86-.28-2.54,1.51-2.7,1.57-.34.11-1.2-.14-1.97.19-.81.35-1.04,1.26-1.98,1.15-.31-1.92,1.62-3.44,3.32-3.74-1.38-1.36-2.26-1.93-2.08-4.16-1.53-.22-.98,2.39-2.09,3.11-.53.34-2.64.71-3.32.63.02-.01-.02-.29.26-.44,1.34-.73,4.17-.84,3.44-3.43-.22-.77-2.35-1.31-1.61-1.95.67-.58,2.15,1.26,3.05,1.16.52-.06,2.32-1.08,2.56-1.58.18-.37,1.09-3.53,1.09-3.94,0-4.09-2.67-2.26-4.34-2.77-.63-.19-.9-1.12-1.75-1.19-.67-.06-4.21.54-4.34,1.1-.16.69.97,2.44-.43,3.29-1.26.76-4.49-.94-4.18,2.89.11,1.3,1.88,1.44,2.03,2.12s-.81,1.76-.15,3.09c.55,1.1,1.86.67,2.81.94.52.15.84.64,1.56.72-3.29,2.33-.58,3.26.25,5.81.68,2.09-3.06,4.31-4.2,5.83-.07-1.57-1.52-3.12-1.37-4.68.16-1.72,1.88-3.51,2.83-4.88-1.74.04-3.59,2.43-3.74,3.98-.12,1.25.64,2.52.79,3.75.54,4.46.54,9.02,1.07,13.49,1.93,5.11,6.09,3.1,10.07,3.05.94-.01,1.88.45,2.84.46,6.8.08,5.72-3.4,6.56-8.6l1.13-4.06c-.5,5.99,1.64,14.04-6.86,14.17-1.1.02-2-.44-2.91-.45-3.98-.06-10.65,1.17-12.29-3.52-.5-1.44-.73-5.32-.83-7.07-.24-4.16.21-8.33.03-12.49.26-1.5,2.58-2.36,3.53-3.54.35-.44.94-.53.21-1.04-.46-.32-1.52-.61-2.1-.45-.22.06-3.52,2.63-3.64,2.83-.51.86.02,3.59-1.14,4.48-1.07.15-.34-.43-.25-1.08.16-1.16.41-2.32.46-3.49-4.01,2.06-.92,4.87-1.03,7.7-.13,3.32-5.18,5.08-7.06,7.52l-3.55-.26c-.41-1.86,2.69-.18,2.91-.42-.09-2.66-1.33-5.3-.42-7.9l-4.78,2.08-.23-1.22c-.87-.03-1.71-.03-2.57-.15-.4-.05-1.66-.13-1.57-.71l4.17.23c.72-.51.31-2.97.51-4.09.56-3.22,4.09-4.21,6.97-4.05.31-1.26-1.06-.72-1.97-1.14-.64-.29-1.07-.89-1.57-1.35h-.61c-.13.87-.51,2.19-1.67,2.07.21-3.54,4.32-4.72,7.27-3.74l.21-.83c-.92.03-3.06-1.96-3.53-1.96-.44,0-1.84,1.4-2.71,1.11l2.08-1.67-.66-.79c-1.23.71-2.91.53-4.03.89-.29.09-3.27,2.54-3.4,2.83-.2.42-1.4,4.29-1.47,4.77-.04.3-.09.72.21.62.45-.15,3.59-1.51,3.74-1.67.48-.48,1.89-3.71,1.46-4.15l-3.32.62c4.06-3.66,6.23-1.67,3.41,2.99-1.38,2.29-3.87,2.25-6.32,2.62.04-1.36.21-2.99,1.25-3.95l-.79-.24,1.2-2.46c-3.4-.73-4.13,1.64-5.41,4.15l3.74-.82c-.18,1.49-5.8,2.47-6.24,2.07-.17-.71.27-.83.62-1.25.73-.87,3.28-3.91,3.99-4.33,1.84-1.09,2.46-.06,3.82-.3.96-.17,2.12-1.64,3.33-2.12s4.58-.87,5.34-1.76c.49-1.12.45-2.68-.88-3.14-.64,3.63-5,3.67-7.91,3.32l4.01-4.52c.95-.72,2.55-.41,3.58.05,1.42.64,1.07,1.97,2.39,1.97.34-1.11.65-1.91-.22-2.89-1.75-1.97-5.69-.2-4.76-4.59-3.39.56-3.82-2.82-2.59-5.29.78-1.56,2.15-1.24,2.84-2.63,2.02.58,6.08.68,6.71,3.24.48,1.96-.06,4.82-1.97,5.72,1.2,1.09,2.33,2.16,2.07,3.95-.89-.29-.91-2.26-1.64-2.72-.68-.43-1.7.04-1.67.43.02.32,2.91,1.43,2.07,3.12,1.48-.5,3.53-.74,4.57.83-.94.06-1.69-.51-2.67-.41-3.27.32-4.49,7.04-.56,6.58.89-.11,5.02-1.93,5.27-2.69.06-1.92-1.89-3.01-.79-5.13-3.53.5-4.65-4.92-1.25-5.41-.52,1.2-1.82,1.35-1.17,3.46.44,1.42,2.63,1.39,2.79,1.58.35.42-.46,2.62,1.61,3.59s1.91-.39,2.89-.68c1.9-.57,3.46,2.3,3.05-3.36,2.8.23,2.69-1.89,2.43-4.12l-3.27-.48c1.33-1.45-.97-3.87-2.38-4.11-.8-.13-1.25.56-2.01.77-1.06.29-2.22-.63-2.24,1.5,0,.67.36,1.19.4,1.84-.67.07-1.42-.09-2.08,0,.49-1.13.24-2.07,1.44-3.34s2.37-.9,3.55-1.85c-1.7-1.72-1.54-4.76,1.39-4.65s3.32,1.46,3.61,4.03ZM157.7,58.97c-.16-3.12-4.3,1.39-4.49,2.34-.07.37.42,2.26.71,2.47l2.53.18v2.91c2.1.72,5.22-3.09,5.38-4.83.13-1.34-.13-2.42-1.24-3.26-1.48-1.12-1.44-.14-2.89.19ZM201.78,59.39l-4.2,2.27c-.94,1.7,1.92,2.18,2.76,1.52.58-.46,1.78-3.41,1.44-3.79ZM152.7,73.94c2.06,1.09,7.93-3.17,3.95-3.36-2.04-.1-3.47,1.49-3.95,3.36ZM168.29,76.23c-1.02.06-3.3,1.71-3.47,2.56-.12.58.64,1.13.64,1.6s-.77.99-.63,1.98c.4,2.94,6.88,1.24,7.35-.4l.29-3.48c-1.69-1.08-1.77-2.41-4.18-2.27ZM191.03,83.15c-.61.93,2.14,3.45,3.46,3.49,4.07.1,3.98-3.59,1.25-5.63-2.91-2.17-2.82-.09-3.95,1.79-.18.3-.72.28-.76.35ZM158.52,81.02c-.84,1.15,3.84,2.48,4.16,1.03s-3.25-1.74-4.16-1.03ZM167.67,84.76c-2.37.43-2.64-.49-3.95-2.04-.91.27-1.84,1.95-2.38,2.18-1.21.5-2.46.03-3.8.75-2.88,1.55-1.61,4.7-2.34,7.43,2.64-1.87,5.59-1.94,5.82-5.82-1.63-.46-1.98,1.09-3.33,1.24,1.26-1.94,3.48-3.01,5.4-4.15.49,1.83-1.99,2.73-1.45,4.57,2.07-1.09,4.49-2.45,6.03-4.15ZM189.31,85.59c.06,1.88-2.44,3.7-.61,5.4,2.03.02,2.08-1.85,1.76-3.44-.08-.38-.61-1.93-1.15-1.96ZM175.16,88.08l.22-1.24c-2.69,2.05-2.34,3.26-1.45,6.23l3.14-3.29c.08-1.16-.77-1.82-1.9-1.7ZM202.2,93.49c-.87-3.52-3.01-2.56-5.29-3.65-1.3-.62-1.8-2.4-3.44-2.17l1.85,2.1.23,1.64.62-.83c1.51,2.43,3.15,3.11,6.03,2.91ZM160.61,98.48c4.43-2.9,6.66-3.68,4.57-9.56l-2.08,3.74c-.74.11-.41-.94-.32-1.36.15-.69.46-1.32.74-1.96-.49-.46-3.17,2.42-3.43,3.01-1,2.32.5,3.88.52,6.13ZM197.51,98.78c1.22-1.2.73-3.64-.72-4.46-.47,1.88-1.87,2.92-.83,4.99.21.15,1.31-.29,1.55-.53ZM202.49,98.18c-.15-.16-2.28-1.47-2.37-1.36l.82,2.91-1.25-2.08c-2.59,2.68.65,4.03,2.91,4.99-.2-1.48,1-3.21-.12-4.46Z"/>
      </g>
      <g>
        <g>
          <path class="cls-1" d="M448.14,115.41c-1.62-1.83-.3-4.03,1.49-5.14,6.8-4.24,22.32-2.5,29.77-.12,5.6,1.78,7.82,5.22,1.17,7.78-6.98,2.69-21.13,2.23-28.2-.3-.89-.32-3.71-1.62-4.23-2.21ZM458.75,108.99c-2.33.24-13.64,2.63-7.96,6.06,4.58,2.77,17.09,3.23,22.4,2.55,1.83-.23,9.28-1.82,9.74-3.6.19-1.09-.93-1.81-1.75-2.3-5.06-3.03-16.63-3.3-22.43-2.71Z"/>
          <path class="cls-1" d="M462.06,81.53c2.04,2.2.68,10.87-1.34,13.22-1.19,1.38-2.79,1.52-3.55,2.27-.69.68-.58,5.77-.1,6.77.59,1.23,2.22,1.07,3.4,1.38l.06,1.37c-.24.95-8.83,1.49-9.58-.79.72-1.14,2.66-.77,3.36-1.63.99-1.22.94-5.62.17-6.9-.43-.71-3.28-.99-4.56-2.93-1.75-2.64-1.89-9.6-.96-12.57.99-3.16,11.47-1.98,13.12-.21ZM461.75,91.2c.37-2.24-.27-5.34,0-7.69-3.36.79-6.24,1.15-9.66.3-.7-.18-1.75-.31-1.98-1.13,3.15.79,7.22,1.49,10.29.09.56-.25.66-.03.52-.92-1.76-1.51-10.36-1.58-11.08.17-.33.82-.61,4.8-.58,5.87.15,4.7,2.02,8.55,7.3,8.09,2.36-.2,4.82-2.48,5.2-4.79ZM458.42,105.55c-2.28-.22-1.5-2.8-2.91-3.75.03.91.06,1.85-.46,2.66-.63.97-1.75.65-2.04,1.49l5.2.42.21-.83Z"/>
          <path class="cls-1" d="M445.52,108.46l-1.93,2.04c-1.68.54-3.38-2.33-4.73-.58-.12.59,1.6,3.51,2.63,3.46.59-.05,3.46-2.05,3.91-2.55.49-.54.43-1.73,1.37-1.96-.31,2.71-2.68,3.84-4.36,5.4-2.11,1.96,2.54,2.4,3.76,2.89,2.62,1.06,3.2,2.94,4.9,4.46.13.12,3.81,1.7,1.73,2.21-2.79.69-4.62-4.85-7.54-6.17-.88-.4-3.92-.89-4.23-1.38-.21-.33.02-1.28-.29-2-.65-1.52-3.16-2.86-2.24-5.38,1.44-.93,3.33.81,4.34.79.9-.02,1.63-1.43,2.7-1.23Z"/>
        </g>
        <path class="cls-1" d="M461.74,231.54c-.64.59-14.63-5.27-15.8-7.06.72-.08,1.39.03,2.1.18,2.19.48,11.19,4.16,12.85,5.45.5.39.99.71.85,1.43Z"/>
        <path class="cls-1" d="M438.45,223.64c-.11.63-.76.8-1.25,1.03-1.57.75-12.63,4.11-13.3,3.54-.2-1.06.21-.73.81-1.04,3.66-1.87,9.66-3.18,13.74-3.53Z"/>
        <rect class="cls-1" x="190.13" y="242.76" width="34.11" height=".85"/>
        <g>
          <path class="cls-1" d="M125.17,106.72c.6-.91.29-6.18-.31-7.14-.64-1.04-3.76-.88-5.11-4.14-.99-2.4-1.16-9.27-.26-11.65.6-1.6,7.3-1.6,8.89-1.51,5.44.3,6.07,1.34,5.55,6.8-.42,4.32-1.66,9.13-6.42,10.21-.04,1.92-1.3,5.97.02,7.51.61.71,3.85.53,3.54,1.86-.4,1.72-8.86,2.22-9.97,0,.49-1.21,3.65-1.3,4.08-1.95ZM132.32,83.93c-3.9-1.19-7.76-1.18-11.65,0-.16.98.11.79.83,1.02,1.68.56,3.65.7,5.41.64.1.72-.95.4-1.45.41-1.83.06-3.52-.05-5.2-.83-.72,4.98-1.24,13.87,5.96,13.58,6.43-.26,6.79-8.38,6.51-13.16-1.07-.04-2.04.35-3.1.44-.46.04-2.31.29-2.3-.43,1.61-.08,4.06-.16,4.99-1.66ZM128.99,108.05c-.54-.06-1.28-.25-1.66-.63-.69-.67-.37-2.05-1.25-2.28.02.57.02,1.12-.22,1.65-.43.96-1.87,1.26-2.28,2.08,1.78.23,4.18.86,5.4-.82Z"/>
          <path class="cls-1" d="M117.24,118.34c-.33.34-1.98.88-2.82,1.55-1.99,1.57-2.97,5.25-5.61,5.24-.5,0-1.31-.15-1.45-.66-.43-1.58,2.56-2.05,3.48-2.75.81-.61,1.22-1.71,2.14-2.44s2.91-1.26,3.34-2.08c.58-1.11-.17-2.07-.23-3.14-.27-4.39,5.28-6.01,5.29-2.9,0,1.28-2.93,2.94-3.39,3.96-.42.92-.04,2.51-.73,3.22ZM117.35,114.28c.72.04,2.5-2.09,2.71-2.49.33-.62-.11-1.23-.42-1.24-.99-.03-2.98,2.49-2.29,3.73Z"/>
          <path class="cls-1" d="M128.57,115.53c.29.28-1.76,2.73-2.09,3.11-1.02,1.18-2.26,2.18-3.31,3.34-.62.69-1.07,1.98-1.69,2.47-2.82,2.24-5.86-.44-1.23-1.85l-.62,2.08c2.39-2.85,4.61-5.92,7.49-8.31.47-.39.67-1.01,1.45-.83Z"/>
        </g>
        <path class="cls-1" d="M326.56,243.6c.09.73-.94.39-1.45.42-1.38.06-2.78-.08-4.16,0-.93.05-1.81.4-2.89.43-3.43.11-7.43.15-10.84-.02-.81-.04-.65.04-.62-.83h19.97Z"/>
        <path class="cls-1" d="M206.77,239.85l-3.95.83c-2.64-.07-5.29.1-7.92.02-1.09-.03-1.96-.38-2.89-.43-1.24-.07-2.5.05-3.75,0-.51-.02-1.55.32-1.45-.42h19.97Z"/>
        <path class="cls-1" d="M89.27,244.43c-.52-.05-1.43-.76-2.29-.42.53-1.44,1.94-.41,3.1-.39,3.14.06,6.31-.34,9.43-.2.7.03,2.41-.14,2.03,1.01-3.95-.29-8.39.39-12.27,0Z"/>
        <path class="cls-1" d="M449.27,244.84l-3.08.8c-6.01-.88-12.26-.13-18.35-.38-.51-.02-1.55.32-1.45-.42h22.88Z"/>
        <path class="cls-1" d="M331.35,240.27c-.4.02-2.38,1.19-2.7,0,5.53-.49,11.05-.98,16.63-.83.12.41-1.77.83-1.87.83-3.94,0-8.17-.22-12.06,0Z"/>
        <path class="cls-1" d="M203.45,237.36c-.01-.68,1.43-.83,1.88-.85,2.59-.08,5.74.35,8.31.43,1.66.05,3.33-.07,4.99,0,.51.02,1.55-.32,1.45.42h-16.64Z"/>
        <rect class="cls-1" x="183.9" y="244.84" width="22.05" height=".42"/>
        <rect class="cls-1" x="304.52" y="236.53" width="19.97" height=".42"/>
        <path class="cls-1" d="M150.62,239.44l-1.21.56c-3.76.16-7.68.12-11.48-.15-.52-.04-1.54.34-1.45-.41h14.14Z"/>
        <rect class="cls-1" x="93.22" y="239.44" width="18.3" height=".42"/>
        <rect class="cls-1" x="324.07" y="246.09" width="16.64" height=".42"/>
        <path class="cls-1" d="M221.95,239.44c.16.04.75.73.62.83-.61.26-1.22-.41-1.46-.41h-13.52v-.42h14.35Z"/>
        <rect class="cls-1" x="431.8" y="240.27" width="15.39" height=".42"/>
        <path class="cls-1" d="M314.09,242.35c-.09-.73.94-.4,1.45-.42,3.28-.14,6.49-.59,9.78-.41l-2.29.83h-8.94Z"/>
        <path class="cls-1" d="M162.68,231.96c-.07.52-1.92.99-2.3,1.03-1.33.16-2.66-.33-3.94-.63-.47-.57-.04-.79.61-.83,2-.11,3.68.29,5.62.42Z"/>
        <rect class="cls-1" x="448.44" y="242.76" width="12.89" height=".42"/>
        <rect class="cls-1" x="334.05" y="243.6" width="12.89" height=".42"/>
        <polygon class="cls-1" points="322.4 238.19 315.96 239.02 311.18 239.02 317.21 238.19 322.4 238.19"/>
        <rect class="cls-1" x="200.12" y="246.92" width="11.65" height=".42"/>
        <path class="cls-1" d="M394.78,93.49c-.81,1.33-3.79.9-5.21.83-.81-.04-.65.04-.62-.83h5.82Z"/>
        <g>
          <path class="cls-1" d="M86.98,191.62c-3.2.1-1.68-3.47-2.16-5.53-.17-.75-.88-1.33-1.15-2.18-2.88-9.33-4.31-19.13-6.25-28.68l-.41-9.77c.6,0,.81,1.27.95,1.75,1.73,5.92,1.91,12.36,2.81,18.39.19,1.24,1.32,2.7,1.55,3.85.36,1.82.19,4,.69,5.96.93,3.64,3.91,9.78,4.37,13.11.16,1.14-.12,2.03-.41,3.09Z"/>
          <path class="cls-1" d="M113.18,177.48c-1.73.34-3.09.7-4.83.04-.56-.21-.71.16-.58-.87,1.77,0,4.09-.98,5.41.83Z"/>
          <path class="cls-1" d="M90.72,179.15c-.82,1.55-2.93,2.07-4.57,2.07-1.04-.9,3.85-2.62,4.57-2.07Z"/>
          <path class="cls-1" d="M82.41,182.48c.22,1.14-3.52,2.72-3.74,2.49-1.08-1.07,2.78-2.98,3.74-2.49Z"/>
          <path class="cls-1" d="M102.37,234.24c.24.9,3.51.96,3.71-.03-2.82-8.02-2.78-16.56-3.71-24.92-.21-1.85-1.21-3.91-.41-5.61l-2.91-.42c1.44,5.2,1.82,10.79,1.67,16.18l1.64.66-20.74,8.57-.05,1.62c1.18-.54,2.28-1.29,3.56-1.64,1.7-.47,3.41-.2,4.78-.62,1.03-.32,1.8-1.64,2.75-2.25,1.92-1.23,5.4-2,7.63-1.52-1.47,1.87-4.17,1.75-6.11,2.62-1.15.52-2.12,1.77-3.21,2.19-1.54.6-3.5.62-5.34,1.31-1.72.65-3.12,1.8-4.81,2.47l-3.4,16.35c2.85.16,1.8,1.42-.21,1.48-1.13.04-1.99-.44-2.9-.45-1.88,0-3.83,1.51-5.14-1.12l11.59-48.77c-4.12.32-8.38-5.73-8.28-9.37.02-.7.6-1.17.72-1.74.37-1.85-1.37-4.8-1.82-6.74-2.76-11.87-6.29-23.81-7.67-35.99-.14-1.21.16-2.47-.06-3.69-.24-.69-2.36-1.09-3.25-1.74-1.18-.86-1.88-2.32-2.07-3.75-.22-1.64-.62-5.87-.35-7.36.92-5.12,10.07-2.48,13.71-1.85,12.4,2.14,26.48,2.21,39.24,1.98,4.47-.08,6.86-.42,11.42,1.02,4.12,1.3,4.16,4.83,3.75,8.74-.8,7.59-7.58,4.97-12.67,4.76-3.44-.14-6.8.19-10.21.44.79,4.16.06,8.47.42,12.68.17,2.02,1.07,4.22,1.24,6.24.54,6.31.48,13.73,1.28,19.92.27,2.11,2.12,5.27,1.45,7.32-.43,1.33-1.33,1.78-2,.29-.8-1.79.24-5.67-.07-7.92-.27-1.98-1.19-3.86-1.5-5.9-1.04-6.96-.72-14.22-1.25-21.21-.27-3.58-1.7-7.3-.41-11.02l-12.89.42c.64,1.69.25,3.38.52,5.09.48,3.05,2,6.77,2.35,9.71.85,7.2,1.01,15.67,2.64,22.73.66,2.86,2.58,4.65,1.98,8-.42,2.34-2.1.18-2.27-1.4-.12-1.04.5-2.1.33-3.31-.22-1.66-1.55-3.88-2.03-5.88-1.62-6.82-2.03-14.13-2.29-20.98-.05-1.18-1.25-3.6-1.54-5.13-.5-2.66-.87-6.28-.11-8.83l-21.21-2.08c.89,2.25,1.41,4.69,1.88,7.06,1.95,9.78,3.93,19.57,6.56,29.21.86,3.16,4.57,8.45.72,10.72,1-3.9-1.85-7.37-2.89-11.04-3.04-10.69-5.42-22.83-7.05-33.7-.12-.79.03-1.6-.1-2.4l-.35-.48c-.74.08-2.19-1.2-2.1.02.1,1.51,1.11,3.16,1.48,4.76,1.95,8.45,3.33,16.66,5.48,25.29,1.03,4.13,1.57,9.06,2.81,12.99.48,1.52,1.19,2.78,2.29,3.94-.8,1.25-1.43-.43-2.49-.21.26,8,6.18,8.39,12.4,9.85,2.69.63,3.3.69,6.11.96,8.62.83,17.17,1.89,25.74.78,6.76-.88,9.67-4.4,15.36-7.1,4.27-2.03,11.48-2.63,12.74-8.06.41-1.79-2.58,1.33-3.01,1.57-4.09,2.29-9.85,2.9-13.3,4.58-.91.44-1.38,1.42-2.23,1.93-1.39.83-7.5,3.06-9.14,3.34-6.17,1.04-11.39,0-17.41-.39-2.73-.17-5.57.24-8.29-.03-2.16-.22-4.31-1.25-6.32-1.59-3.65-.61-8.68.01-11.41-2.74-.09-1.09.18-.42.73-.31,2.06.39,4.15,1.5,6.17,1.73,2.35.27,4.91-.04,7.36.23,9.31,1.01,22.97,3.29,32,.94,3.83-1,3.89-2.41,6.61-3.79,4.16-2.12,14.92-4.28,17.2-7.75.41-.62.8-1.23.62-2.03-.29-.41-8.46-3-9.52-3.17-4.81-.76-9.96.74-14.57-1.02-1.05,4.81,2.76,10.49-.68,14.46l-2.84.11c-.84-.09-2.16-1.51-2.3-2.31-2.04-11.72-1.41-24.28-1.65-36.19-.06-2.74-1.05-5.61-.02-8.51,1.01-.12.66,0,.87.58.47,1.29.71,4.37.78,5.87.55,11.54-.19,22.68,1.64,34.12.32,1.98-.63,5.13,2.52,5.17,1.21-3.19-.18-5.99-.41-8.94-.49-6.46-.14-12.88-.4-19.14-.1-2.44-.94-5.19-1.14-7.59-.27-3.2.39-6.43.3-9.65.98.58,1.15,3.22,1.24,4.37.29,3.57.61,7.22.85,10.79.35,5.1-.08,10.48.82,15.61.24.3,4.56-.23,5.46-.18,2.49.14,5.12,1.77,7.66,1.86,4.59.16,6.17-.71,11,1.45,2.49,1.12,2.66,1.79,2.52,4.58-.17,3.61-1.29,5.08-3.32,7.86,2.05,6.95,3.24,14.11,5.09,21.12,1.53,5.82,3.98,11.84,5.34,17.53,1.91,7.97.77,9.13-7.54,7.74l2.5-1.04-3.34-14.76c-2.44.8-4.19,2.88-6.66,3.95-3.16,1.36-7.86,2.94-11.23,4.15-.51.18-2.32.92-2.49,0-.13-.7.76-.98,1.2-1.29,3.25-2.31,8.34-3.13,11.98-4.66,2.96-1.24,4.63-4.25,8.19-3.84.77.19,4.24,13.25,4.51,15.11.28.93,1.23.96,1.52.03.75-2.38-2.39-9.1-3.16-11.7-1.95-6.64-3.37-13.33-4.88-20.07-.9-4-2.59-7.9-2.31-12.04l-2.9,1.87c.77.65,1.05,1.46,1.36,2.38,1.77,5.28,4.3,14.74,5.19,20.17.13.76.36,2.19-.53,2.6-.68.31-1.05-1.22-1.23-1.67-.49-1.27-.91-2.81-1.27-4.14-1.67-6.27-2.95-12.81-4.36-19.13-5.41.41-9.05,4.56-13.44,6.73-1.31.65-5.08,1.27-5.29,2.63-.08.54.01,1.08.06,1.61.7,8.43,3.49,18.94,4.84,27.6.99,6.36,1.73,12.78,2.89,19.11-.02,1.36-1.63,2.74-2.96,2.61-.39-.04-.74-.41-.87-.41h-18.93v-.42h14.14l-2.91-.84,2.49-.41.02-3.14-4.79-45.97c-.48-.93-10.31.21-11.87.25l2.46,18.67c3.2.65,6.38,1.71,9.2,3.37.54.32,1.05-.08.82,1.03-1.64.12-3.26-.3-4.8-.81-1.84-.61-3.38-1.86-5.18-2.51.44,3.93,1.16,7.68,2.34,11.45-1.7,2.7-5.35,2.86-7.26.32l-.49-10.53,1.28.25c-.07.61.8,1.74.8,2.04,0,1.67-.33,5.81,0,7.07ZM61.9,128.5c-3.64.82-1.94,4.63-1.54,7.19s-.72,4.11,2.81,5.09c11.43,3.17,28.47,3.61,40.24,3.02,3.95-.2,8.6-.78,12.4-.67,2.41.07,4.44,1.5,6.74-.56,1.62-1.45,2.25-7,1.23-8.75-.53-.91-3.52-1.91-4.62-2.04-9.17-1.07-20.4.47-29.9-.04-6.98-.37-15-1.54-21.95-2.59-1.91-.29-3-1.2-5.42-.65ZM85.73,201.6l-3.74-.84c0,1.01.08,2.02-.1,3.02-2.37,13.28-7.01,27.6-10,40.74-.31,1.38-.81,2.69-1.14,4.06l5.22.74.54-.6c.58-2.8.55-5.79,1.02-8.55,1.47-8.68,3.22-17.56,4.99-26.2.85-4.17,1.82-8.36,3.21-12.38ZM97.79,203.27l-10.81-1.67-4.99,24.95,17.71-7.04-1.91-16.24ZM119.84,203.26h-3.75s.03.62.03.62l5.79,48.45c1.64-.27,4.96,1.18,4.86-1.37l-6.93-47.7Z"/>
        </g>
        <g>
          <path class="cls-1" d="M329.48,179.57c.16,1.01-.14.9-1.04.83-1.38-.12-3.63-.52-4.99-.84-.63-.15-.73.3-.63-.82,2.46-.68,4.33.14,6.66.83Z"/>
          <path class="cls-1" d="M339.04,183.31l-.21.83c-.9.46-5.66-2.11-4.78-2.91l4.99,2.08Z"/>
          <path class="cls-1" d="M317.83,179.56c-1.3.01-2.74.81-4.02.71-.77-.06-1.67-.11-1.39-1.12,1.56.23,4.32-1.21,5.41.41Z"/>
          <path class="cls-1" d="M291.42,184.55c1.07.27.29,1.22-.6,1.48-3.06.89-7.75-.78-9.99,2.48,2.45,3.19,6.42,4.02,9.52,6.27l4.61,3.91c-4.89-1.33-9.23-4.75-13.52-7.48-.43,2.74,4.17,3.53,6.09,4.72,3.32,2.06,4.17,4.65,8.68,6.29,5.68,2.07,12.98,2.49,18.9,2.27,8.96-.33,19.45-.25,28.26-1.69,3.06-.5,6.36-1.42,6.91-4.94-1.21.2-1.81,1.28-3.03,1.75-.9.35-2.08.5-3.05.69-11.15,2.1-22.43,1.81-33.64.88-3.97-.33-7.71-.02-11.71-1.19-.56-.16-1.27-.15-1.4-.89,3.39.51,7.19,1.31,10.61,1.43,9.89.36,25.71,0,35.25-1.95,2.5-.51,6.09-1.18,6.79-4.05.55-2.24-3.77-3.16-3.98-5.41,1.85.23,5.28,2.64,5.73,4.45.33,1.31.63,4.28.32,5.55-.5,2.09-3.24,3.96-5.2,4.58l13.38,41.66,3.65,7.57c-.69,1.13-1.69.32-2.56.44-3.04.42-6.15,1.4-9.27.99-1.17-.15-2.27-.99-3.56-.8,0-.69,1.42-.82,1.88-.85,1.14-.07,2.85.1,3.73.85.32.07.26-.39.2-.61-.67-2.52-1.79-4.99-2.46-7.53-2.48-9.44-4.38-19.02-6.9-28.45-1.06-3.98-2.88-7.83-3.14-12.04l-5.39.4c.56,2.54.2,5.14.42,7.69s1.34,5.08.81,7.84c2.49,1.36,5.15,2.56,7.39,4.34.5.4,1.14.47.95,1.34-1.2,1.03-6.65-2.98-7.9-3.74.18,1.93.78,3.48,0,5.4,1.19.31,8.52-1.05,8.74-.2s-1.02.81-1.57.91c-2.03.39-4.27.59-6.34.54-.65,3.61,4.99,9.94-2.3,9.16-3.95-.42-2.58-2.66-2.67-5.22-.04-1.18-.58-2.31-.44-3.52l-35.35,1.66.42,21.21c.61-.01,1.21-.04,1.82.05.52.07,2.27.19,2.34.78-.83.1-1.48.68-2.31.82-2.81.47-8.05,1.06-10.69.34-.63-.17-1.43-.94-1.97-1.36l1.22-.23c-.5-2.8.92-5.59,1.24-8.12.24-1.89.39-5.03.47-7.02.08-2.15-.1-4.32-.02-6.46-.9.48-2.73-1.33-3.54-2.07-1.71-1.55-4.06-3.8-3.94-6.24h1.25c-.21-.57-.7-.78-.83-1.47-.52-2.81,1.57-10.41,1.92-13.81.21-2.06-.02-4.54.15-6.56.18-2.24,1.81-3.29-1.24-4.37-.7,1.76-.64,3.66-1.02,5.43-.2.94-.9,1.74-1.04,2.7-.33,2.16.26,4.71-.12,6.95-.23,1.39-1.42,2.71-1.56,3.88-.16,1.35.56,2.54.39,4.08s-1.33,2.6-1.84,4c-1.36,3.72.06,7.35-.72,11.34-.18.91-1.75,2.52.3,2.81,2.71.38,1.65-2.15,1.91-3.92.45-2.97,2-5.59,2.04-8.57,2.38,2.04-.49,5.79-.8,8.14-.38,2.94,1.25,6.32-3.15,6.02s-2.06-4.55-1.88-7.3c.14-2.03-.19-4.19.04-6.19.29-2.49,2.08-4.85,2.27-6.89.11-1.21-.34-2.44-.19-3.92.18-1.76,1.26-3.21,1.52-4.71.33-1.94-.05-4.1.14-6.09.16-1.62,2.4-8.77,1.98-9.35-1.06-.18-3.32-1.88-3.61-2.84-.45-1.51-.34-5.29,1.01-6.31.65-.49,4.25-1.72,4.94-1.72,1.55,0,5.04-.3,6.24,0ZM292.8,202.5l-4.91-3.4c-.8,7.72-1.84,15.41-2.9,23.1-.09.68-.06.66.61.61.79-.06,6.04-1.17,6.02.2-1.81,1.6-4.45.9-6.65,1.04l4.58,4.78,1.46,2.29c.47-1.67.06-3.45.25-5.15.54-4.97,1-9.98,1.21-15.01.12-2.82-.06-5.65.34-8.45ZM297.45,204.1c-1.28.14-2.27-.15-3.32-.83-.13,2.41.16,4.89.02,7.3-.72,11.87-.95,24.86-2.1,36.57-.53,5.44-3.12,6.9,4.99,5.61-.34-.63-.4-1.13-.44-1.84-.61-11.24.09-22.93.44-34.12.13-4.24-.16-8.46.42-12.68ZM346.11,204.1c-.71.47-3.04-.05-2.91,1.03,1.24,4.04,2.53,8.11,3.62,12.19,2.38,8.88,4.15,18.27,6.65,27.03.29,1,2.47,7.34,2.79,7.62,1.1.94,3.69-.88,5.23-.46-4.9-9.46-7.08-20.11-10.28-30.26-1.49-4.74-3.73-9.87-4.93-14.62-.21-.84-.24-1.66-.19-2.52ZM331.14,205.75c-2.14.07-4.31-.09-6.45,0-5.8.24-11.15.97-17,.37-2.86-.29-6.17-.96-8.99-1.61l-.42,25.78,35.77-2.08c-1.85-3.5-1.27-7.4-1.66-11.01-.42-3.8-1.24-7.59-1.24-11.44ZM334.89,205.76l-2.09.22c.89,5.08.78,10.26,1.25,15.38.21,2.24,1.45,4.7.42,6.86h2.49s-2.08-22.45-2.08-22.45ZM337.38,229.87h-2.5c1.18,2.05.79,4.4.83,6.66h2.92c.15-2.4-1.86-4.04-1.25-6.66Z"/>
          <path class="cls-1" d="M310.76,147.96l-.02,36.4c.64,3.35,2.17,8.37-.61,10.99-2.24-1.57-.24-2.89-.17-4.76.06-1.64-.75-2.91-.89-4.57-.69-8.03.31-16.54.45-24.53.08-4.54-.06-9.03-.43-13.53l-9.99-.42c.06,2.56-.06,5.15-.02,7.71s.09,4.11.02,6.63c-.14,4.78,1.15,5.66,1.63,9.18.53,3.92-.48,8.34-.4,12.01.09,4.27,2.62,5.78,1.06,11.46-.42,1.54-1.24,2.52-2.61,1.05-.02-1.74,1.34-4.38,1.38-5.83s-1.29-3.98-1.47-5.83c-.37-3.89.78-8.15.42-11.65-.24-2.26-2.05-4.21-2.11-6.25-.05-1.72.76-4.41.86-6.22.11-2.15-.43-4.08-.43-5.84,0-1.95.72-4.15.45-6.19l-3.76-1.07c-.28,1.51.37,2.92.43,4.35.5,12.03-.66,24.77-.02,37.03.09,1.8.71,3.8.47,5.77.25.73,5.09,1.8,2.75,2.45-1.35.38-3.67-.3-4.38-1.66-.75-1.44.04-2.05-.07-3.21-.29-2.96-.42-4.09-.41-7.07,0-9.83-.52-19.28-.02-29.13.14-2.76.11-5.52.44-8.28-2.53-1.08-5.86-1.51-6.88-4.41-.76-2.15-.15-3.86-.19-6.05-.04-2.07-1.11-3.27.27-5.48,1.23-1.96,5.7-2.5,7.8-2.17,1.23.19,2.26,1.1,3.77,1.24,2.32.21,5.19-.64,7.9-.43,5.81.46,12.59,2.79,18.3,2.49,5.55-.29,12.54-1.48,18.26-2.12,2.52-.28,4.85-1.85,7.53-2.03,1.85-.12,5.66.33,6.88,1.85,2.07,2.59,1.46,10.24-.99,12.56-.99.94-3.81,1.97-4.4,2.88-.4.62-.96,3.99-1.17,5.07-2.05,10.34-3.85,23.05-4.71,33.54-.21,2.53.5,7.85-.78,9.93s-5.91.04-5.89-3.68c.03-5.83,2.52-13.05,2.58-19.07,1.73-4.2,1.06-8.61,1.64-12.91.46-3.42,2.48-6.83,2.88-11.27.03-.34.19-1.03-.24-1.04l-10.16.84c.54.99.47,2.01.42,3.11-.6,11.38-4.32,24.29-4.6,35.36-.03,1.18.51,2.33.46,3.73-.02.61-.68,4.24-.86,4.36-1.14.74-2.01-1.32-2.05-2.32-.05-1.11.68-2.47.8-3.71,1.09-11.28,2.41-22.43,4.21-33.63.35-2.18.94-4.4,1.62-6.49l-12.85.87c-.16,1.57.06,3.17-.04,4.74-.67,10.12-2.45,21.99-1.68,32.03.24,3.1,2.47,7.82-1.03,9.74-.82-.67-1.25-2-1.04-3.03.07-.32.74-.27.97-.78.85-1.91-.75-2.83-.97-4.68-.11-.97-.03-2.32.01-3.34.4-9.71.72-19.4,2.12-29.07.27-1.86.91-3.79,1.21-5.65h-11.65ZM356.1,131.74c-.61-.82-2.38-1.53-3.33-1.86-.72-.25-1.47-.68-2.26-.63-1.24.09-3.92,1.7-5.46,2.04-2.57.55-6.07.12-9.03.54-9.27,1.32-14.47,2.01-24.11.64-4.54-.65-7.97-1.11-12.58-1.56-1.49-.15-5.66-1.31-6.57-1.17-.2.03-3.56,1.48-3.79,1.63-1.68,1.15-.62,4.75-.65,6.83-.01,1-.52,1.92-.44,2.86.33,3.52,7.33,4.67,10.16,4.82,14.74.82,31.61-.1,46.2-2.08,4.17-.57,9.42.07,11.67-4.55,1.11-2.28-.03-3.65.58-6l-1.64-1.29,1.25-.22ZM349.44,145.47l-2.45.61c.93,2.89-.04,6.42-.65,9.38-1,4.87-1.94,9.82-2.67,14.8-.56,3.81-.83,7.74-1.34,11.55-.28,2.09-2.04,8.83-1,10.24.72.98,2.13,1.13,2.31-.61.41-3.87-.27-8.44.44-12.45l5.36-33.52Z"/>
        </g>
        <g>
          <path class="cls-1" d="M236.72,193.7c-5.61.22-3.18-6.08-3.3-9.36-.07-2.01-1.24-3.91-.86-6.03-1.7-.05-3.53.27-5.11-.51-.99-.49-2.02-1.81-.13-1.54.86.12,5.05,1.41,5.23,1.21-.49-3.32,1-6.62,1.25-9.77.28-3.51-.22-7.64,0-11.64.16-2.84.34-5.68.42-8.52,1.67,1.6,1.33,5.09,1.26,7.3-.16,5.53.02,11.54-.43,17.03-.14,1.65-.83,3.01-.85,4.96-.03,3.24,1.08,5.59.86,8.77-.12,1.8-1.36,4.31-.39,5.76.58.85,2.16,1.03,2.03,2.33Z"/>
          <path class="cls-1" d="M237.14,193.28c-.55-2.31.81-4.81.85-6.88.14-7.15-.21-12.49.41-19.92.25-2.98-.58-4.01-.87-6.23-.22-1.7-.21-10.1.21-11.48.14-.47.52-1.13,1.05-1.23.64,2.81.17,5.7.42,8.52s1.36,6.56,1.28,9.16c-.1,3.17-1.13,7.05-1.3,10.37-.21,4.24.68,9.03.43,12.91-.1,1.56-.56,4.68-2.49,4.78Z"/>
          <path class="cls-1" d="M210.1,176.65c.2,1.05-.19.73-.81,1.04-1.17.58-3.49,1.14-4.8,1.06-1.73-.1-2.06-1.36-.41-1.68.81-.16,5.75-.66,6.02-.42Z"/>
          <path class="cls-1" d="M220.91,176.65c-.76,1.26-6.25,1.55-6.24-.42,2.1-.05,4.19-.09,6.24.42Z"/>
          <path class="cls-1" d="M196.37,236.32c-.39,2.89-6.06,2.92-6.25.41-.11-1.53,2.18-8.03,1.26-8.94l-6.62-.37c.07,2.57-1.75,5.57-1.94,7.84-.22,2.55.13,5.88-.21,8.51-.08.61-1,4.06-1.22,4.5-.94,1.86-6.85,2.43-8,.2-2.17-4.22,1.8-6.67,2.5-10.17.19-.94-.04-1.9.14-2.77,2.27-11.57,4.7-23.11,7.44-34.56.07-.3-1.2-.22-1.67-.4-3.57-1.36-4.88-3.2-4.59-7.1.09-1.15.26-2.72,1.68-2.68.33,1.98-.1,5.79,1.52,7.01,1.27.96,6.02,1.53,7.85,1.72,6.6.7,13.3.67,19.92,1.3,8.56.81,17.04,3.3,25.44.38,2.6-.9,5.6-2.87,6.01-5.84l-3.2,2.82c-4.72.3-9.77,1.23-14.46,1.09-5.72-.17-11.38-1.38-17.07-1.84-6.61-.53-13.88.08-20.34-.87-1.66-.25-3.96-.62-4.41-2.45l11.44,1.24c11.23.58,22.51,1.94,33.69,2.91,4.37.38,12.97-1.44,14.98-5.81.51-1.11.51-2.44,1.09-3.49.99-1.79,8.27-6.8,5.78-9.22-1.01-.98-4.45-.89-5.83-1.45.25-.94,1.12-.79,1.85-.85,2.28-.19,6.03-.11,6.45,2.75.19,1.3-.53,5.56-1.01,6.85-1.05,2.82-3.81,1.99-3.55,6.43.3,5.08,1.47,12.77,2.61,17.76.73,3.18,2.43,6.57,2.74,9.73.36,3.6-.02,6.37,1.17,10.06.77,2.38,3.7,5.13.94,6.92s-6.21-.85-9.13-1.02l2.5-.41c.27-4.41-1.19-8.64-2.09-12.89-1.72.89-2.78,3.71-4.12,4.82-.59.48-1.57.56-1.64.64-.96,1.06,1.12,6.31,1.42,7.83.57,2.92.59,6.09,1.12,8.86.61,3.25,4.48,9.52-.81,10.61-5,1.03-6.49-6.41-6.77-10.1-.13-1.76.18-3.7.02-5.42-.65-6.91-2.43-13.65-2.93-20.57l-32.44-1.66c-.54-.46-.07-.8.62-.83,1.58-.08,3.43-.08,5.02-.02,7.6.31,15.27.79,22.86,1.27,1.31.08,2.64-.05,3.95,0-.32-1.88-1.48-14.79-2.35-14.99-10.4.59-20.54-2.03-30.92-2.06.86,2.2.04,4.9-.02,7.25-.12,4.89.28,9.6-.51,14.47-.07.44-.24,1.43-.93,1.14-.84-.36-.29-.96-.27-1.48.14-4.91.16-9.66.47-14.53.15-2.31-.55-4.84.83-6.86l-2.91-.42c.85,3.65.07,7.02,0,10.57-.09,4.38.33,8.8-.41,13.12-2.31.15-.75-4.38-1.25-4.99l-5.82,4.99,44.09,2.92c0,.7-1.38.79-1.87.83-5.78.46-11.74-.59-17.47-.84-2.91-.13-5.84.12-8.75.02-1.83-.06-3.82-.79-5.8-.44-.62.2.21.93.21,1.04,0,2.25.28,5.39,0,7.48ZM247.12,185.39l-4.38,3.72-.61,1.68c.77.17.99-.42,1.45-.83,1.46-1.29,2.84-2.72,3.53-4.57ZM243.17,192.46l-1.84,5.6c1.88,5.46,1.7,11.3,2.58,16.94.8,5.1,2.62,11,3.17,15.96.29,2.65-1.14,6.69,3.14,5.99,2.75-.45.43-2.98-.1-4.46-1.81-5.09-.74-7.67-1.37-12.35-.24-1.75-1.53-3.68-2-5.48-1.53-5.77-2.27-14.28-2.95-20.34-.08-.73.18-1.34-.63-1.86ZM237.56,227.38l6.1-7.27c-1.85-3.39-1.11-6.98-1.53-10.4s-1.44-7.07-1.66-10.6c-.64.11-.6.88-1.26,1.44-1.42,1.2-4.14,1.81-4.98,2.51-.31.26-.38.45-.43.84-.13.89.7,6.99.95,8.21.45,2.23,1.8,4.51,1.75,6.98l5.64.81c.1.72-.95.39-1.45.41-1.32.05-2.64-.04-3.96,0l.84,7.07ZM187.23,201.18l-2.91-.41c.4,3.8-1.36,7.45-2.05,11.05-1.56,8.11-2.88,16.36-4.56,24.55-.18.87.05,1.83-.14,2.77-.41,2.07-2.65,4.75-2.81,6.79-.29,3.77,5.35,3.38,6.13-1.39.45-2.75-.12-5.62.14-8.18.36-3.5,2.59-8.15,3.24-12.14.97-5.98,1.59-12.29,2.1-18.23.14-1.59,1.24-3.05.86-4.8ZM192.22,201.6l-3.74-.41c-.12,7.27-2.11,14.4-2.91,21.62,2.37-1.12,3.9-4.18,6.63-4.17.1-2.26-.23-4.52-.25-6.77-.02-2.13.17-4.19.27-6.31.06-1.31-.04-2.64,0-3.95ZM229.23,203.68c1.64,9.27,2.35,18.71,3.8,28.01.52,3.37,2,7.64,2.21,11.02.11,1.9-.37,3.85-.08,5.98s3.16,9.22,5.1,4.88c.47-1.04-1.15-6.45-1.41-8.15-1.23-8.11-2.19-15.93-3.43-24.02-.92-6.04-2.59-11.98-2.87-18.14l-3.32.42ZM195.13,227.8c-3.6-.26-1.94.94-2.1,3.06-.2,2.68-3.47,7.31,2.12,5,.04-2.69-1.13-5.48-.02-8.06Z"/>
          <path class="cls-1" d="M239.63,135.49c-1.88,1.88-5.45,1.62-7.9,1.66l7.9-1.66Z"/>
          <path class="cls-1" d="M198.87,148.79c.66,3.48,1.31,7.07,1.66,10.6.74,7.34.91,14.71,1.23,22.06.11,2.46.72,5.34.63,7.88-.04,1.16-.29,4.03-1.88,2.93-.78-.54.1-5.63.04-7.11-.41-10.38-1.19-20.85-2.1-31.17-.15-1.73.27-3.52-.18-5.22l-12.71-1.63,2.87,16.88,2.54,27.4-.83.21c-1.29-2.44-.92-5.4-1.25-8.11-1.03-8.42-1.76-16.94-2.95-25.32-.53-3.72-2.08-7.55-1.62-11.47l-8.94-1.67c-.52-.03.97,5.72,1.03,6.45.25,3.02,0,6.06.46,9.1s1.78,5.87,2.03,8.78c.28,3.19-.31,6.76.04,9.94.21,1.86,1.14,4.06,1.52,5.97.47,2.35-.48,5.42,2.6,6.34-.43-6.08-1.32-12.17-1.83-18.25-.09-1.09.27-2.23.13-3.54-.66-6.06-5.65-17.3-4.75-22.7.4-2.4,1.31-1.27,1.48.61.72,7.84,3.4,14.33,4.51,21.69.57,3.82.51,7.75.88,11.59.24,2.49,1.71,8.24,1.06,10.21-.32.98-1.11,1.41-2.1,1.44-4.19.1-3.11-4.72-3.64-7.4-.4-2.04-1.69-4.19-1.94-6.37-.44-3.78.73-7.48.37-11.18-.3-3.07-2.07-6.33-2.45-9.61s.15-9.51-.98-12.33c-1.01-2.52-5.63-.68-6.13-4.29-.19-1.36.4-2.22.41-3.29.02-2.75-1.71-3.34.64-6.42s5.48-1.21,8.45-1.09c1.78.08,3.69-.37,5.63-.14,2.63.31,5.29,2.17,7.94,2.46,6.2.66,14.1-1.12,20.36-1.26,8.81-.2,17.85.27,26.65,0,3.28-.1,7.04-.67,7.3,3.52.28,4.44-1.83,11.16-6.92,11.83-1.84.24-3.91-.12-5.79.04-2.13.18-4.27,1.16-6.43,1.26v15.6c-.02.99-.42,1.89-.45,2.87-.27,7.84-.14,16.36-.81,24.14-.05.57-.19,1.48-.63,1.87-2.74-.07-.71-7.15-.62-8.94.45-8.64.62-17.57.85-26.18.08-3.16-.1-6.25-.44-9.38l-10.81.42c.71,3.63.3,7.33.42,11.02.32,9.81,1.15,20.55.44,30.37-.12,1.68-.49,3.41-2.04,1.58l.77-42.97h-13.73ZM242.84,133.52c-1.15-1.34-4.98-1.03-6.76-.97-7.07.24-14.17.73-21.18.83-8.86.13-18.58,2.3-27.37.76-1.87-.33-4.07-1.7-5.95-1.95-1.57-.21-3.34.05-4.96-.03-1.78-.09-4.05-1.1-5.78.04-.41.27-1.88,2.18-1.89,2.63-.03.81.72,2.05.79,2.99.09,1.23-.87,3.4.13,4.21.75.61,6.8,2.06,8.21,2.39,14.2,3.32,29.51,2.62,43.89,2.28,4.78-.11,7.94-.98,12.34-1.37,2.76-.25,5.52,1.09,7.42-1.74,1.03-1.55,2.36-8.64,1.12-10.07Z"/>
        </g>
        <g>
          <path class="cls-1" d="M444.27,147.13c.85,4.05.01,8.16-.46,12.21-1.1,9.3-2.71,18.66-4.1,27.91-.29,1.94.24,4.42-1.46,6.02-2.5-1.63-.48-3.57-.32-5.24,1.13-11.64,3.16-23.31,4.69-34.87.24-1.84.32-4.74,1.66-6.03Z"/>
          <path class="cls-1" d="M415.58,180.81h6.24c-.68,2-6.33.92-6.66,1.25-.01,3.78-.07,7.92-.93,11.54-3.69,1.54-1.2-2.32-1.19-3.41.11-13.05.45-26.72.45-39.94,0-.39.45-3.51.63-3.54,1.25-.17,1.36.44,1.48,1.44.54,4.71-.58,9.21-.87,13.72-.39,6.19.41,12.77.85,18.94Z"/>
          <path class="cls-1" d="M410.58,146.3c.16,1.78.73,3.88.84,5.61.11,1.95.04,4.57-.11,6.54-.56,7.78-1.39,15.91-1.58,23.79-.09,3.74.09,7.38.85,11.04-1.56.24-2.23-.38-2.47-1.89-.49-3.16-.22-10.28-.04-13.72.33-6.47.98-13.04,1.27-19.52.17-3.74.23-7.49.42-11.23.04-.8-.05-.65.83-.62Z"/>
          <path class="cls-1" d="M429.72,147.13c-.2,3.74.27,7.73,0,11.43-.63,8.55-1.83,17.23-2.49,25.78-.14,1.82.42,7.16-.4,8.28-1.04,1.43-1.75-.8-1.71-2.05.1-3.11.36-6.5.52-9.56.06-1.26.19-3.4.36-4.55,1.33-8.75,1.53-17.93,2.52-27,.07-.62.14-2.73,1.2-2.33Z"/>
          <path class="cls-1" d="M411.83,197.85c.54-1.44,1.98-.41,3.1-.39,16.18.32,32.03.97,47.9-2.88l3.06.16c-1.1,1.39-2.92,1.7-4.55,2.09-11.65,2.83-23.78,2.45-35.58,1.44-4.61-.39-9.37.54-13.93-.42Z"/>
          <path class="cls-1" d="M436.79,180.4c.69.87-1.48,1.15-1.91,1.2-.81.08-3.93.12-4.33-.37-.61-.75.14-.69.61-.83,1.07-.33,5.03-.74,5.63.01Z"/>
          <path class="cls-1" d="M459.67,184.97c.33,1.59-1.85.58-2.61.31-.47-.17-4.55-1.99-3.63-2.81,2.37-.21,3.92,2.16,6.24,2.5Z"/>
          <path class="cls-1" d="M420.36,199.94c-.45-.07-1.34-.52-1.04-1.25,2.78.04,5.5.67,8.32.42.17.42-.97.83-1.04.83-1.85,0-4.54.25-6.24,0Z"/>
          <path class="cls-1" d="M449.27,181.64c-2.05.1-3.98-.34-6.04-.41-.69-.03-1.15-.37-.62-.83,2.11.27,5.28-.87,6.65,1.24Z"/>
          <path class="cls-1" d="M414.33,241.93l.42-14.14c-1.59.12-3.11-.48-4.57-1.05-4.15-1.6-8.63-3.74-12.77-5.53-.97-.42-2.2-1.42-2.92-1.66-1.23-.41-.89.72-1.16.77-2.38.44-.76-3.41-.63-4.8.54-5.66,1.33-11.57,2.84-17.11.17-.63.35-1.17.89-1.6,0-.16-2.52-1.79-2.7-1.87-.78-.32-.52.27-.61.63-.9,3.67-1.11,5.92-2.39,9.68-.96,2.82-.25,5.36-.58,8.15-.25,2.15-1.64,3.74-1.94,5.55-.62,3.77-.95,8.5-1.95,12.19-.4,1.47-1.26,2.77-1.89,4.13,5.59,1.16,3.95.4,4.67-3.43.6-3.18,2.4-6.84,2.4-10.28.77.46,1.69.34,2.5.62,3.93,1.36,8.55,4.81,11.82,6.06,2.67,1.02,6.4.25,8.14,3.71-1.94.37-3.22-.98-4.88-1.57-1.27-.45-2.6-.63-3.85-1.14-4.32-1.75-9.14-4.13-12.9-6.86.22,1.49.2,3.65-.04,5.16-.28,1.76-1.26,3.22-1.53,4.71s.31,3.26-.91,4.5c-1.94,1.97-6.86.41-8.75-1.27,2.32-.64,2.99-3.11,3.54-5.19,1.03-3.86,1-8.31,2.06-12.07.58-2.08,1.88-3.83,2.19-6.13.29-2.16-.18-4.52.13-6.53.21-1.35,1.48-3.37,1.87-5.2.44-2.08.35-4.39,1.03-6.44-4.5-1.56-6.22-4.83-5.41-9.59.52-3.05,7.94-2.88,10.18-3.13,2.91-.32,5.52-1.46,8.53-.41l-2.8,1.14c-4.78.98-8.86-.29-13.3,2.5-.31.2-.68-.12-.55.72.11.71.41.82.87,1.22,4.26,3.68,10.03,5.1,15.34,6.29l2.94,3.51c-.59.51-4.59-2.6-5.53-2.99-4.2-1.76-9.82-1.5-13.4-5.32-.47.68.66,2.32,1.31,2.85,3.67,3.02,10.08,4.72,14.16,7.06,4.38,2.5,4.12,4.68,10.33,5.48,11.74,1.5,27.98,0,39.93-1.25,2.71-.28,9.77-.68,11.21-2.93,1.31-2.03,2.54-7.34,1.06-9.54,2.8-.11,2.72,3.52,2.5,5.61-.21,1.97-1.83,5.41-3.59,6.39-1.53.85-3.44.46-4.72,1.51l16.63,45.73c-1.03,1.38-2.59.13-3.95.18-1.01.04-1.63.7-2.52.85-3.52.56-6.82-.48-10.17-1.23-.1-.73.94-.39,1.45-.41,1.45-.06,3.03-.21,4.37.41.9-1.06-3.56-17.73-4.61-20.13-.35-.49-7.23-3.57-8.42-4.06-3.06-1.28-7.63-2.33-10.28-3.86-.61-.35-1.46-.6-1.2-1.45l.8-.03v-14.14h-2.08v25.16c0,.36-1.07,2.22-1.18,3.02-.32,2.47,1.77,2.28,3.67,2.18l-.41-12.06c2.95,1.66,1.97,5.61,2.08,8.52.06,1.48.93,3.2.23,4.81-2.37.59-6.72,1.43-7.23-1.99l1.62-11.14c-.9-6.1-.27-12.35-.45-18.51-6.39.24-12.74,1.27-19.13.42l2.49,36.59h16.64c.03.88.19.79-.62.83-1.92.1-3.9,0-5.83,0-1.4,0-2.71,0-4.14.02-2.01.03-4.04-.06-6.05-.02l.83,7.69c-.25,4.35,1.69,8.78-4.37,8.98l-11.02-1.29,3.14-.43,3.93.43c-.76-2.04.9-4.63.81-6.41-.07-1.41-1.4-3.47-1.61-5.05-.18-1.4.06-2.92-.03-4.33h-5.82v-.42h5.82ZM414.29,204.96c-2.44-.44-5.4-1.31-7.43-2.76-1.1-.79-1.79-2.02-3.06-2.76-.56-.33-6.32-2.69-6.53-2.41-.59,3.76-1.13,7.57-1.77,11.33-.21,1.25-.97,2.44-1.12,3.45-.31,2.06.16,4.33-.42,6.41l20.36,8.33c-.03-1.45.06-2.91,0-4.37-.14-3.66.11-7.09,0-10.81-.06-2.13.08-4.28-.04-6.41ZM469.03,247.75h6.03c-1.2-3.4-2.57-6.77-3.75-10.18-3.27-9.42-6.84-19.49-9.67-29-.56-1.86-1.26-3.76-1.14-5.73-1.11.14-2.43.23-3.53.43-.41.08-.88-.24-.62.6.27.9,1,2.07,1.35,3.23,3.36,11.21,7.76,23.87,10.17,35.16.24,1.11.43,5.3,1.16,5.49ZM444.69,204.51v14.14l9.43,3.67,7.21,3.61-6.28-22.2-10.36.79ZM419.74,205.34l-4.16-.42c0,.21-.02.42-.02.63,0,2.28.82,5.65.81,7.93-.02,3.58-.42,6.76-.36,10.75.1,6.59-.63,14.43-.02,20.81.23,2.39,1.39,5.06,1.51,7.56.06,1.32-1.06,4.1.56,4.92.95.48,2.31.09,3.06-.59.48-.44.32-7.23.27-8.56-.11-2.88-.7-6.24-.85-9.13-.39-7.72,0-17.08-.81-24.56-.14-1.31-.75-2.29-.85-3.72-.13-1.89.22-3.86.85-5.63Z"/>
          <path class="cls-1" d="M482.44,129.35c.69.73.59,2.8.48,3.81-.14,1.33-1.71,7.42-2.24,8.57-.96,2.07-2.73,1.99-4.37,3.21-1.43,8.65-2.29,17.38-4.36,25.9-1.61,6.64-4.21,12.91-5.83,19.54-.58,1.18-1.32,2.25-1.46.21-.34-4.75,3.07-11.81,4.46-16.33,1.83-5.97,3.36-13.69,4.23-19.89.44-3.16-.16-6.51,1.29-9.72h-3.74c.3.64.47,1.11.44,1.85-.23,6.01-2.83,14.31-4.49,20.09-2.19,7.64-3.47,15.73-5.28,23.41-.62,2.62-2.51,2.15-2.24-.53.25-2.48,1.97-6.37,2.65-9.04,2.81-11.13,5.1-22.56,7.79-33.79.17-.71.39-1.34.71-1.99-3.85-.91-7.77.01-11.47.8-.36.53-.53,6.29-.73,7.59-1.84,12.41-5.39,24.58-7.54,36.95-.08.48-.48,2.86-1.27,2.47-.52-.25-.96-1.63-.93-2.22.11-1.9,1.79-5.84,2.27-8.07,1.72-8.04,3.64-16.91,4.98-24.96.66-3.94.26-8.1,2.2-11.73-1.94.31-4.08.66-6.03.83-12.58,1.11-25.3.69-37.86-.41-2.93-.26-8.82.86-10.29-2.61-.6-1.41-.16-2.79-.36-4.21-.35-2.43-1.62-4.8.04-7.12,2.09-2.94,7.64-.83,10.6-.6,11.92.92,25.43-.96,37.45-1.68,7.47-.45,14.97-.49,22.46-.84,2.19-.1,6.52-1.5,8.42.52ZM478.69,141.61c.37-.37.75-1.63.92-2.2.41-1.36,1.67-6.31,1.71-7.47.14-3.84-4.71-1.64-6.89-1.45-3.85.34-8.14-.2-12.06,0-15.47.81-31.02,2.58-46.6,1.68-2.78-.16-6.9-1.71-9.32-.21-2.79,1.73-1.18,3.37-.9,5.85.37,3.19-.66,6.27,3.61,7.21,9.98-.25,19.94.79,29.92.44,9.43-.33,18.89-1.76,28.28-2.49,2.65-.21,9.44.54,11.33-1.36Z"/>
        </g>
        <g>
          <path class="cls-1" d="M383.55,188.29l-3.64,1.44,1.98,30.17c-2.61-.32-1.53-4.36-1.66-6.44-.27-4.25-.62-8.64-.83-12.89-.18-3.67-.33-7.35-.42-11.02-.79.48-2.57.62-2.86,1.52-.25.77.61,5.52.56,7-.05,1.4-.64,2.87-.64,4.16,0,2,1.1,4.57,1.28,6.66.2,2.28-.53,8.56.4,10,.27.42.95.77,1.27,1.23-5.39,2.65-2.71-6.35-2.89-9.58-.12-2.18-1.01-4.21-1.27-6.21-.58-4.41.63-9.08-.42-13.51-5.38.25-11.06,1.01-16.42,1.01-.43,0-2.31.02-2.29-.6l13.48-.87c3.71-.67,8.42-2.7,12.12-2.88.83-.04,1.97-.18,2.27.84Z"/>
          <path class="cls-1" d="M112.23,111.9c1.44,1.63.42,3.92-1.16,5.06-6.01,4.36-24.87,3.17-31.81.67-5.09-1.83-3.89-5.51.53-7.41,7.53-3.25,20.82-3.13,28.51-.42.77.27,3.49,1.61,3.93,2.1ZM91.05,108.58c-3.59.29-8.82,1.19-11.85,3.12-4.97,3.17,2.26,4.66,4.86,5.29,6.44,1.55,18.44,1.88,24.54-.84,1.99-.89,4.06-2.25,1.65-4.14-3.52-2.77-14.76-3.79-19.2-3.43Z"/>
          <path class="cls-1" d="M394.21,95.28c.61-.04,1.31.31,2,.3,7.02-.06,14.33-.31,21.21-.03.98.04,4.26.75,4.84,1.43,1.52,1.83-.67,2.64-2.3,2.76-6.36.48-12.51-.43-18.74-.85-2.13-.14-7.2.56-8.55-.59-1.71-1.46-.23-2.91,1.54-3.02ZM420.57,98.48c-.17-2.06-3.98-1.14-5.61-1.25-.82-.05-1.58-.4-2.48-.43-6.31-.25-12.67.43-18.94-.4,0,1.53,1.91,1.95,3.12,2.08,4.5.47,9.3-.54,13.71.02l10.21-.02Z"/>
          <path class="cls-1" d="M346.5,115.07c-.03-2.03-2.2-2.1-2.91-3.88-2.21-5.54,4.3-6.61,5.88-4.2,1.32,2-3.6,5.76-1.47,8.11.51.56,1.43.73,2.07,1.26,2.05,1.7,2.8,5,4.61,7.06.61,1.15-.6,2.04-1.63,1.99-2.92-.13-2.57-3.78-3.83-5.7-.92-1.41-2.76-2.38-3.93-3.56l1.21-1.08ZM346.42,106.86c-2.71.53-2.93,4.45-.51,5.75.7-.36,2.62-4.47,2.6-4.78-.05-.78-1.35-1.12-2.09-.97ZM353.6,123.84l-3.76-6.42-1.64-.64c.68,1.03,1.6,1.91,2.16,3.04.85,1.73.62,4.51,3.25,4.02Z"/>
          <path class="cls-1" d="M154.26,98.8l-23.19.92c.02-1.94,2.91-1.16,4.36-1.24,1.91-.11,2.84.02,4.56.02,4.23,0,8.5.13,12.72-.21.85-.73.22-1.33-.64-1.47-2.34-.39-7.38-.08-10-.02-2.39.06-5.38.89-7.88.43-.72-.13-1.16-.45-1.04-1.25,6.4-.99,12.82.13,19.25.08l2.18,1.57-.32,1.16Z"/>
          <path class="cls-1" d="M69.93,118.86l-1.25,1.04-6.24,2.7c2.4.16,4.95-1.28,7.28-1.28,3.71,0,9.06,2,12.52,2.08,2.54.06,4.38-1.79,7.77-1.12.58.11,1.1.67,1.79.74,1.07.11,3.37-1.3,3.09.41-1.07.07-2.01.52-3.12.45-1.3-.08-2.53-1.24-3.68-1.16s-2.77,1.11-3.93,1.43c-4.85,1.36-11.63-2.05-17.37-1.56-2.8.24-5.12,2.03-8.09.85-1.21-.97,3.88-2.01,4.27-2.17,2.27-.88,4.43-2.28,6.96-2.4Z"/>
          <path class="cls-1" d="M160.19,212.82c-2.39-.36-1.47-3.49-1.66-5.2-.42-3.65-.58-6.77-.83-10.39-.19-2.77-1.24-5.19-.41-8.11.61.11.81.76,1.03,1.25,1.31,2.9.79,7.82,1.05,11.01.2,2.5.78,4.85.83,7.49.03,1.32,0,2.64,0,3.95Z"/>
          <path class="cls-1" d="M145.21,218.65c.08.7.07.93-.43,1.44-1.42,1.45-10.71,4.4-13.29,5.43-1.91.76-3.81,2.66-5.83,1.86-.18-.86.42-.97.96-1.33,1.01-.68,2.98-1.53,4.17-2.07,1.53-.69,13.88-5.87,14.42-5.33Z"/>
          <path class="cls-1" d="M198.04,117.19l1.66-1.25c1.05-1.47-4.58-2.01-5.62,0-.84,1.62.81,3.34,1.36,4.79l-5.3,7.27c2.4.97,2.71-3.08,3.81-4.71.48-.71,2.33-3.05,3.25-1.73-2.69.67-4.67,9.52-7.91,7.5-1.54-.96,1.7-3.17,2.28-3.99.62-.87,1.02-2.06,1.54-3.03.27-.49,1.04-.97,1.12-1.37.31-1.56-4.87-5.45,2.1-6.97,4.05-.88,8.04,3.33,1.71,3.5Z"/>
          <path class="cls-1" d="M366.49,113.45c.11.61-.78.53-1.24.63-.99.22-2.51-.06-2.92,1.03,3.16.26,6.75-.65,9.79.4,4.28,1.48,5.17,8.53,10.37,8.77.83.04.67-.1.63-.84l-.83-.41c1.53-.07,3.62-.35,3.74,1.66-2.16.61-4.57.3-6.61-.66-4.5-2.12-4.25-7.86-10.23-8.49-3.33-.35-6.22,1.11-9.36-.42-.16-.9.4-.98,1.04-1.24,1.7-.67,3.82-.36,5.61-.42Z"/>
          <path class="cls-1" d="M276.65,188.29c.3.98-.75,1.12-1.49,1.21-2.95.34-8.34.72-11.22.47-1.43-.12-2.42-.71-3.72-.85-1.97-.21-4.18.19-6.2-.04-1.14-.13-3.72-.66-4.41-1.62,3.79.48,7.65.5,11.44.83,1.36.12,2.91.81,4.18.84,2.1.05,5.32-1.06,7.82-1.11,1.23-.03,2.37.29,3.6.27Z"/>
          <path class="cls-1" d="M177.65,125.93l-.83,1.24c4.2.1,3.46-3.56,4.9-6.11,1.54-2.73,3.86-3.09,6.74-3.45l-3.32-1.24c1.04-.09,5.55-.13,5.82,1.04.31,1.34-3.83,1.32-4.68,1.55-5.88,1.63-2.47,9.89-9.69,9.06-3.21-.37-1.18-2.3,1.06-2.09Z"/>
          <path class="cls-1" d="M364.83,134.65c-.09-.73.94-.39,1.45-.42,4.43-.18,8.93.42,13.3-.43,6.62.18,13.2-.07,19.77-.4.18.39-.37,1.25-.62,1.25h-33.9Z"/>
          <path class="cls-1" d="M209.68,115.53c-.02,1.83-1.59,1.99-2.48,2.71-.49.39-2.67,5.51-2.84,6.32-.5,2.35.11,5.81-3.85,4.91-.71-.42-.33-1.27.22-1.47.34-.12-.04,1.2.82.83,1.86-.8,1.38-3.76,1.98-5.5.35-1.03,1.59-4.25,2.03-5.04s3.43-3.4,4.1-2.76Z"/>
          <path class="cls-1" d="M284.55,179.98c.1.73-.94.39-1.45.41-5.15.21-9.75,0-14.79-1.02-4.32-.88-9.72-2.46-13.81-4.07-.44-.17-1.24-.12-1.14-.72,2.3.07,5.24,1.86,7.38,1.98,3.79.23,2.28.21,5.51,1.54,5.33,2.2,12.61,1.77,18.3,1.88Z"/>
          <path class="cls-1" d="M163.1,212.41c-.45.52-.81.08-.83-.61-.06-1.53-.34-2.82-.41-4.17-.16-2.71.23-5.64,0-8.31-.25-2.82-2.01-5.3-.82-8.11l.83,1.46,1.25,19.75Z"/>
          <path class="cls-1" d="M173.91,188.3c.2,1.25-.29.68-1.02.83-3.02.66-8.56.52-11.65-.02-.38-.07-1.89-.84-1.89-1.02,1.05-1.04,2.31-.21,3.52-.19,3.72.08,7.32.36,11.04.4Z"/>
          <path class="cls-1" d="M369.82,181.64c.08.6-1.09.75-1.49.79-3.72.38-7.85.4-11.56-.01-2.29-.26-4.69-.81-6.91-1.4.57-.85.95-.49,1.65-.44,4.36.3,9.12,1.42,13.53,1.51,1.58.03,3.13-.74,4.78-.45Z"/>
          <rect class="cls-1" x="130.24" y="133.83" width="32.44" height="1.14" transform="translate(-.29 .32)"/>
          <path class="cls-1" d="M250.45,135.49c-.09-.73.94-.39,1.45-.42,7.61-.32,15.29.26,22.9.02,2.28-.07,4.83-.82,7.26-.43.14.11-.53.83-.62.83h-30.99Z"/>
          <path class="cls-1" d="M160.6,186.22c-.7,2.27-9.83,1.53-10.4.82-.44-.54-.03-.82.63-.84,1.29-.03,2.56.44,3.72.42,1.83-.04,4.04-.79,6.05-.4Z"/>
          <path class="cls-1" d="M388.75,98.89c.25.04.62.51,1.04.42v.41s-13.72,0-13.72,0v-.41c.53.17,1.23-.42,1.46-.42,3.24,0,8.27-.44,11.23,0Z"/>
          <path class="cls-1" d="M151.45,170c.1.64-.77.49-1.25.61-5.67,1.47-12.04,1.42-17.88,1.46-.1-.73.94-.39,1.45-.41,5.95-.24,11.81-.67,17.68-1.66Z"/>
          <path class="cls-1" d="M158.52,168.75l-2.91,1.86-5.4,1.46c.47-.9,1.9-1.19,2.81-1.56,1.7-.7,3.69-1.48,5.51-1.76Z"/>
          <path class="cls-1" d="M376.06,115.11c.42-1.01,1.6-1.3,2.31-2.06.35-.37,3.51-5.05,3.93-4.59l-3.51,5.01-2.72,1.64Z"/>
          <path class="cls-1" d="M72.74,115.62c2.15-.18,1.11,1.13-.43,1.66-3.27,1.12-2.78-1.39.43-1.66Z"/>
          <path class="cls-1" d="M378.56,108.88l-1.24,2.49,1.45-1.25c.51.53-.92,2.22-1.44,2.72-.35.33-2.8,1.98-2.92,1.85l2.49-2.91c-.58-.52-3.41,3.24-3.33.84l2.04-1.08,2.94-2.66Z"/>
          <path class="cls-1" d="M331.97,220.73c-.16.75-.81.78-1.44.85-1.69.18-3.66-.11-5.42-.02-2.89.16-6.26.74-9.13.85-5.32.2-10.81-.5-16.03.39.16-.75.81-.78,1.44-.85,10.12-1.02,20.39-1.06,30.59-1.23Z"/>
          <g>
            <path class="cls-1" d="M424.59,114.42c2.13,2.17,1.36,5.23-1.14,6.7-1.27.74-5.81,1.99-7.36,2.21-7.97,1.15-22.08.42-29.5-2.73-5.64-2.39-6.69-6.86-.54-9.42,8.23-3.44,19.79-2.31,28.36-.5,2.59.55,8.39,1.93,10.18,3.75ZM423.75,118.71c2.12-2.13-.7-4.12-2.68-5.15-7.64-3.97-29.71-6.1-36.42-.06-3.6,3.25,1.36,5.05,3.99,5.87,7.33,2.3,29.39,5.07,35.12-.67Z"/>
            <path class="cls-1" d="M415.16,117.61c.1.73-.94.39-1.45.41-6.67.28-14.57.25-21.18-.45-.4-.04-1.56-.19-1.49-.79l24.12.83Z"/>
          </g>
          <g>
            <path class="cls-1" d="M147.2,109.83c5.55-.54,21.69.4,25.63,4.49,3.4,3.53.28,6.75-3.21,8.36-8.02,3.7-26.2,3.69-34.13-.13-2.83-1.36-5.1-3.7-3.25-6.89,2-3.46,11.15-5.46,14.97-5.83ZM172.12,115.23c-4.38-5.01-20.46-5.23-26.6-4.18-8.52,1.46-20.41,7.45-4.97,11.42,7.83,2.01,21.29,2.14,28.66-1.47,2.22-1.09,5.05-3.34,2.92-5.77Z"/>
            <path class="cls-1" d="M162.89,118.44c.16.04.75.73.62.83-1.2.06-2.29.37-3.52.44-3.57.19-15.21.52-18.03-.31-.53-.16-1.22-.32-1.33-.96h22.25Z"/>
          </g>
        </g>
      </g>
      <g>
        <path class="cls-1" d="M431.48,104.21c.98.95,5.92.35,4.09,2.82-1.66,2.24-11.09,1.91-12.91-.86,1.18-1.53,4.42-1.05,5.36-2.54,1.52-2.42.75-8.78.08-11.55-2.34-.84-4.31-1.26-5.79-3.45-1.27-1.87-2.62-8.03-2.58-10.31.01-.74.79-5.08,1.07-5.62.95-1.87,7.96-1.82,9.93-1.62,2.19.22,4.8.52,5.55,2.77.64,1.92,1.09,7.36.89,9.41-.25,2.64-1.1,5.49-3.3,7.09-1.71,1.24-2.89.59-3.26,3.39-.24,1.75.2,6.71.37,8.7.05.51.17,1.44.51,1.77ZM426.3,71.98c-1.36.17-3.97.72-4.4,2.25-.18.63-.45,3.25-.5,4.08-.26,4.3.22,10.39,4.99,12.06,8.1,2.83,10.14-6.27,9.52-12.43-.61-5.97-4.13-6.65-9.61-5.96ZM430.13,100.56c-1.35-.33-.7,1.23-.93,2.19-.59,2.49-2.11,2.91-4.48,3.22,2.07,2.12,6.38,1.34,9.15.82.29-1.19-.98-.8-1.82-1.3-1.76-1.04-2.06-3.03-1.93-4.94Z"/>
        <path class="cls-1" d="M426.39,75.61l7.69-1.25c.65.24-.22,1.25-.41,1.25h-7.28Z"/>
      </g>
    </g>
  </g>
</svg>